<?xml version="1.0" standalone="no"?>
<!DOCTYPE svg PUBLIC "-//W3C//DTD SVG 20010904//EN"
 "http://www.w3.org/TR/2001/REC-SVG-20010904/DTD/svg10.dtd">
<svg version="1.0" xmlns="http://www.w3.org/2000/svg"
 width="700.000000pt" height="420.000000pt" viewBox="0 0 700.000000 420.000000"
 preserveAspectRatio="xMidYMid meet">

<g transform="translate(0.000000,420.000000) scale(0.100000,-0.100000)"
fill="#000000" stroke="none">
<path d="M4376 3195 c-8 -8 -19 -15 -24 -15 -5 0 -15 -7 -22 -15 -7 -8 -16
-13 -20 -10 -6 4 -230 -210 -230 -220 0 -8 60 45 107 94 24 25 43 41 43 36 0
-5 11 6 25 25 14 19 32 35 41 36 9 2 34 16 55 33 21 17 49 31 63 31 30 0 34
-15 9 -29 -14 -7 -15 -13 -6 -21 8 -9 15 -6 28 14 10 14 15 33 11 41 -7 20
-60 20 -80 0z"/>
<path d="M4383 3128 c-10 -17 -13 -38 -5 -38 16 1 43 30 37 39 -8 15 -22 14
-32 -1z"/>
<path d="M4292 3069 c-35 -23 -65 -39 -67 -37 -3 2 -39 -29 -82 -70 -43 -41
-109 -95 -148 -119 -38 -25 -87 -61 -108 -79 -55 -46 -159 -96 -207 -100 -14
0 -33 -4 -42 -9 -13 -5 -18 -3 -18 9 0 25 -93 22 -135 -4 -40 -25 -62 -75 -38
-84 21 -9 31 3 13 14 -12 8 -10 10 8 10 27 0 28 -11 3 -34 -13 -12 -20 -14
-23 -5 -2 7 -10 10 -17 8 -11 -4 -10 -8 3 -21 9 -9 12 -19 7 -23 -6 -3 -14 3
-20 12 -7 12 -10 13 -11 4 0 -14 -77 -91 -91 -91 -5 0 -8 -6 -6 -12 1 -7 -7
-13 -18 -14 -40 -2 -46 -4 -67 -29 -16 -19 -24 -22 -31 -13 -5 9 -7 6 -3 -7 4
-16 -8 -30 -55 -65 -33 -25 -88 -75 -121 -112 -33 -38 -65 -68 -70 -68 -6 0 6
18 25 39 25 28 34 46 31 63 -4 21 -4 21 5 3 9 -19 10 -18 10 5 1 17 4 21 10
12 6 -11 10 -11 19 0 8 11 -1 14 -45 16 -37 2 -53 0 -48 -7 6 -11 -7 -15 -34
-12 -7 2 -10 -2 -6 -8 3 -6 0 -9 -8 -5 -8 3 -38 -13 -68 -36 -29 -22 -57 -40
-61 -40 -5 0 -8 -5 -8 -10 0 -7 7 -7 23 0 19 9 20 9 3 -2 -10 -7 -32 -25 -48
-40 -17 -16 -36 -28 -44 -28 -7 0 -28 -8 -46 -18 -21 -12 -41 -16 -53 -12 -11
4 -28 3 -38 -2 -10 -5 -22 -7 -25 -3 -11 10 21 25 56 25 17 0 32 5 32 10 0 6
-10 8 -24 4 -13 -3 -27 -1 -30 5 -12 18 -24 13 -88 -42 -59 -49 -232 -157
-253 -157 -6 0 -21 -9 -35 -20 -15 -12 -41 -20 -65 -20 -36 0 -125 -32 -125
-44 0 -3 17 1 38 8 21 7 46 10 57 6 22 -9 21 -9 -54 -30 -85 -23 -292 -103
-308 -118 -14 -14 -13 -17 8 -25 14 -5 88 -5 174 -1 83 5 213 8 290 9 137 0
142 -1 220 -34 95 -40 153 -42 298 -12 50 11 119 22 152 25 33 3 87 8 120 12
38 3 97 0 157 -11 54 -9 102 -14 107 -11 5 3 11 0 14 -8 3 -7 23 -18 44 -24
21 -5 65 -18 98 -27 33 -9 95 -23 137 -31 111 -21 165 -10 344 74 318 148 345
157 484 157 58 0 173 -4 255 -9 193 -11 229 -6 281 42 23 20 44 45 47 55 12
32 -15 68 -73 97 -140 71 -233 120 -244 130 -18 14 -254 130 -266 130 -5 0
-10 4 -10 8 0 5 -31 20 -70 33 -38 13 -70 27 -70 31 0 5 -9 8 -19 8 -11 0 -22
4 -25 8 -3 5 -35 23 -71 41 -62 31 -76 51 -34 51 10 0 18 -6 17 -12 -2 -7 7
-14 19 -16 12 -2 27 -10 33 -18 7 -8 18 -14 25 -14 7 0 40 -13 73 -30 34 -16
72 -30 86 -30 36 0 55 -10 49 -26 -7 -19 24 -29 53 -16 15 7 24 8 24 2 0 -6
-7 -10 -16 -10 -8 0 -12 -5 -9 -10 3 -6 17 -7 31 -4 16 4 24 2 24 -6 0 -7 8
-10 19 -7 13 3 21 -1 24 -15 4 -15 11 -18 27 -13 14 4 20 2 18 -7 -2 -7 5 -13
15 -13 10 0 21 -6 26 -13 4 -7 15 -10 24 -6 12 4 17 1 17 -10 0 -11 9 -16 27
-16 14 0 24 -3 20 -6 -9 -9 65 -45 80 -39 7 2 13 -2 13 -10 0 -15 11 -19 38
-16 7 1 11 -4 10 -10 -2 -7 6 -15 17 -17 11 -2 23 -9 27 -15 3 -5 21 -10 39
-9 18 0 28 -2 21 -6 -8 -5 -2 -17 18 -36 17 -15 30 -32 30 -38 0 -6 9 -8 20
-5 11 3 20 1 20 -4 0 -5 -5 -9 -11 -9 -5 0 -8 -4 -5 -9 3 -5 -2 -8 -12 -7 -11
1 -17 -6 -16 -20 0 -14 -4 -20 -13 -17 -7 3 -13 -2 -13 -12 0 -9 -4 -14 -9
-11 -5 3 -14 -1 -21 -9 -20 -24 -4 -19 153 45 191 78 242 91 347 89 98 -3 173
-20 242 -55 l48 -24 0 25 c0 16 -6 25 -15 25 -21 0 -31 30 -14 41 11 7 11 9
-3 9 -20 0 -34 22 -43 71 -6 31 -3 39 19 57 15 11 49 23 76 26 28 3 73 9 100
12 33 4 50 11 50 20 0 45 37 -27 54 -106 6 -31 -15 -59 -72 -94 l-43 -27 5
-64 c3 -54 13 -83 66 -186 33 -67 59 -123 56 -126 -9 -9 -47 19 -43 32 3 7 -6
23 -20 35 -20 18 -25 19 -20 5 4 -9 7 -21 7 -26 0 -6 5 -7 10 -4 6 4 10 -5 10
-19 0 -16 6 -26 15 -26 28 0 18 -56 -14 -79 -34 -25 -41 -26 -41 -7 0 8 -10
32 -22 53 -76 133 -203 192 -428 197 -114 2 -154 -3 -530 -74 -25 -5 -83 -15
-130 -24 -258 -47 -313 -58 -415 -81 -38 -9 -92 -20 -120 -25 -27 -4 -84 -16
-125 -25 -95 -20 -273 -52 -370 -65 -204 -28 -241 -32 -320 -33 l-84 -2 -21
32 c-11 18 -29 35 -39 39 -11 4 -31 17 -45 31 -14 13 -36 26 -48 29 -13 4 -23
10 -23 15 0 5 -10 9 -22 9 -22 0 -22 1 5 26 15 14 25 29 22 34 -3 4 4 6 16 3
18 -5 19 -7 5 -15 -9 -5 -16 -13 -16 -18 0 -16 30 -11 36 5 7 17 40 20 49 4 4
-6 0 -9 -10 -7 -10 2 -20 -3 -22 -9 -6 -15 33 -18 42 -3 3 6 16 10 28 9 19 0
19 -2 -5 -11 -16 -5 -28 -14 -28 -19 0 -15 58 -10 68 6 7 13 14 14 35 6 17 -7
27 -7 27 -1 0 6 -7 10 -15 10 -9 0 -44 10 -78 21 -69 24 -73 25 -174 41 -80
12 -103 8 -103 -20 0 -11 -7 -25 -15 -32 -10 -9 -15 -9 -15 -1 0 6 5 11 10 11
6 0 10 9 10 19 0 24 -37 17 -43 -8 -4 -15 -5 -15 -6 0 -1 14 -11 16 -68 12
-63 -4 -142 -20 -187 -39 -14 -5 -17 -4 -12 4 9 15 1 15 -26 1 -11 -6 -40 -11
-66 -11 -31 0 -41 -3 -31 -9 11 -7 9 -9 -9 -9 -13 0 -21 4 -18 9 7 11 -71 41
-107 41 -15 0 -27 4 -27 8 0 9 -59 32 -83 32 -9 0 -17 5 -17 10 0 7 -30 10
-82 8 l-83 -3 -11 -55 c-7 -30 -12 -48 -13 -39 0 9 -10 19 -21 22 -20 5 -28
27 -10 27 6 0 10 -4 10 -10 0 -5 5 -10 10 -10 6 0 10 14 10 31 0 28 -3 31 -25
27 -14 -3 -25 -1 -25 4 0 5 -15 6 -32 3 -73 -13 -104 -17 -131 -16 -15 0 -26
-3 -23 -7 2 -4 -31 -5 -75 -3 -53 2 -79 0 -79 -8 0 -6 7 -11 15 -11 31 0 14
-15 -17 -16 -18 0 -42 -4 -52 -9 -15 -6 -17 -5 -11 5 6 10 4 12 -8 7 -11 -4
-20 5 -32 31 -13 30 -15 32 -10 9 4 -19 2 -26 -5 -22 -16 10 -12 -12 6 -30 13
-13 14 -19 5 -28 -10 -9 -15 -8 -23 6 -7 13 -17 17 -34 13 -14 -4 -24 -2 -24
4 0 5 -9 10 -21 10 -32 0 -12 -19 29 -26 20 -4 45 -13 55 -22 12 -11 17 -12
17 -2 0 6 6 10 14 7 7 -3 19 0 25 6 8 8 11 8 11 -1 0 -7 9 -12 20 -12 13 0 18
5 14 15 -4 9 0 15 10 15 9 0 13 -6 10 -14 -6 -16 56 -17 68 -1 4 6 8 1 8 -10
0 -17 -6 -20 -45 -18 -25 0 -47 -2 -49 -6 -6 -10 6 -27 24 -34 8 -3 0 -6 -17
-6 -29 -1 -33 2 -34 27 0 15 -3 21 -6 15 -2 -7 -11 -13 -19 -13 -8 0 -14 -8
-14 -18 0 -26 -30 -23 -31 2 0 20 -1 20 -11 -1 -15 -32 -27 -29 -35 8 -3 16
-9 27 -14 22 -4 -4 -5 -20 -2 -35 4 -20 11 -28 27 -28 21 0 53 -36 42 -48 -3
-3 -6 0 -6 6 0 7 -12 11 -30 10 -16 -1 -30 -6 -30 -10 0 -4 -4 -8 -8 -8 -5 0
-8 21 -7 46 0 25 -2 47 -7 50 -4 3 -8 -4 -8 -15 0 -14 -9 -21 -32 -26 -18 -4
-37 -10 -43 -13 -19 -11 -47 -9 -52 5 -6 15 -33 18 -33 4 0 -15 31 -42 41 -36
5 4 9 1 9 -6 0 -10 3 -10 12 -1 7 7 25 12 41 12 22 0 28 -4 23 -16 -3 -9 -6
-24 -6 -35 0 -10 -6 -19 -13 -19 -9 0 -12 10 -9 30 3 18 0 30 -7 30 -11 0 -15
-12 -12 -36 1 -7 -21 -10 -59 -10 -33 1 -60 4 -60 8 0 5 14 8 30 8 l30 0 -20
20 c-11 11 -29 21 -39 23 -11 2 -26 9 -35 16 -22 18 -31 7 -28 -34 3 -27 -1
-35 -19 -40 -14 -5 -25 -3 -27 3 -2 6 -18 9 -35 6 -18 -2 -58 -6 -90 -8 -54
-4 -58 -2 -78 26 -16 22 -19 32 -10 41 8 8 11 8 11 -1 0 -7 5 -12 11 -12 8 0
8 4 0 14 -10 12 -16 12 -40 0 -28 -14 -37 -29 -60 -103 -21 -66 -8 -271 17
-271 4 0 20 -25 36 -56 28 -53 97 -124 122 -124 6 0 17 -7 24 -15 31 -37 316
-129 495 -159 22 -4 52 -12 68 -18 20 -8 31 -7 42 2 13 11 20 11 40 0 20 -11
30 -11 51 -1 19 8 30 9 38 1 15 -15 76 -12 82 4 3 8 26 22 52 31 41 16 55 17
136 6 69 -9 102 -19 136 -41 74 -47 156 -54 605 -55 l330 0 145 49 c180 62
226 64 385 17 95 -29 125 -33 225 -34 97 0 130 4 210 28 115 33 112 33 330 12
361 -35 397 -37 491 -31 78 5 111 3 170 -12 63 -16 111 -19 324 -18 226 0 258
2 330 22 120 33 256 102 322 164 59 56 119 164 110 199 -3 10 -1 36 5 57 13
52 -24 374 -57 495 -27 101 -67 192 -97 224 -28 29 -34 29 -42 -3 -7 -25 -8
-25 -20 -8 -8 10 -11 25 -8 34 5 13 3 13 -11 1 -15 -12 -17 -11 -17 6 0 10 -6
25 -12 32 -9 10 -10 15 -2 18 12 4 6 53 -7 53 -19 0 -59 -20 -59 -30 0 -6 5
-8 10 -5 6 3 10 -3 10 -15 0 -31 -24 -19 -28 14 -5 36 13 55 57 62 34 5 37 9
39 41 4 52 -58 255 -79 260 -17 5 -29 31 -29 68 0 11 -18 57 -39 101 -52 108
-149 212 -239 255 -85 42 -139 37 -214 -19 -68 -51 -164 -149 -155 -159 4 -4
43 31 85 77 58 62 80 81 87 70 5 -8 4 -11 -2 -7 -11 7 -126 -114 -124 -130 1
-4 9 -8 19 -8 24 0 42 -13 42 -31 0 -11 -7 -13 -27 -8 -16 4 -29 11 -31 15 -2
5 -11 2 -19 -7 -9 -8 -25 -13 -35 -11 -14 4 -18 1 -16 -11 2 -9 10 -17 17 -17
8 0 16 -11 18 -24 3 -19 1 -21 -10 -12 -8 6 -16 8 -19 5 -3 -3 -16 12 -28 34
-17 30 -28 40 -49 40 -14 0 -31 -4 -38 -10 -7 -6 -14 -5 -18 2 -3 5 0 10 7 11
20 1 -33 21 -67 25 -16 2 -37 7 -45 11 -16 6 -26 9 -48 11 -7 1 -11 6 -8 11 4
5 -3 7 -14 4 -11 -3 -20 -1 -20 4 0 13 -90 40 -160 48 -41 5 -108 20 -130 29
-8 3 -58 0 -110 -8 -98 -15 -120 -14 -79 4 22 10 22 10 -8 7 -36 -4 -44 12
-18 33 25 21 17 27 -32 26 -41 -1 -48 -4 -51 -23 -3 -19 -8 -21 -35 -17 -54
10 -59 13 -52 34 4 11 2 20 -4 20 -6 0 -11 -12 -12 -27 l0 -28 -16 23 c-8 12
-24 22 -34 22 -11 0 -19 5 -19 11 0 6 6 9 14 6 13 -5 36 10 36 25 0 4 -13 6
-30 5 -21 -1 -30 -7 -30 -19 0 -10 -13 -24 -29 -33 -28 -14 -30 -14 -26 5 4
21 -3 24 -31 13 -16 -6 -16 -7 2 -14 18 -7 17 -8 -3 -8 -12 -1 -25 4 -28 10
-10 15 -48 -28 -41 -47 3 -8 0 -14 -8 -14 -8 0 -12 9 -11 25 2 14 -1 25 -6 25
-5 0 -9 -9 -9 -21 0 -15 -4 -19 -16 -15 -14 5 -15 4 -4 -9 11 -13 10 -14 -4
-9 -9 3 -16 11 -16 16 0 6 -18 8 -40 6 -22 -2 -40 0 -40 4 0 5 -8 8 -17 8 -14
0 -15 2 -5 9 7 4 25 6 39 3 15 -3 29 1 34 9 7 12 9 12 9 0 0 -11 4 -10 16 5 8
10 13 13 9 7 -10 -20 10 -15 30 7 10 11 26 20 37 20 10 0 18 5 18 11 0 6 -9 8
-21 4 -15 -5 -19 -4 -15 4 4 6 2 11 -3 11 -6 0 -3 9 6 20 10 11 22 20 27 20 5
0 1 -9 -9 -20 -19 -22 -7 -28 14 -7 10 10 11 9 6 -5 -8 -21 -7 -21 32 -7 25 8
30 14 25 32 -5 21 -4 21 15 5 21 -19 43 -24 43 -9 0 5 8 8 18 6 9 -1 11 0 3 2
-9 4 -10 7 -3 12 7 4 8 12 2 21 -7 11 -11 9 -19 -13 -6 -15 -16 -27 -22 -27
-7 0 -9 3 -6 7 4 3 -2 17 -14 29 l-21 23 21 -6 c11 -3 18 -9 15 -14 -12 -21
12 -7 33 19 13 15 20 19 17 10 -3 -10 -1 -18 5 -18 6 0 11 -7 11 -15 0 -17 24
-30 39 -21 6 4 0 17 -12 30 -12 13 -28 31 -35 40 -7 9 -17 14 -23 11 -5 -4 -9
-2 -9 3 0 6 7 13 16 16 8 3 12 2 9 -4 -3 -6 -1 -10 5 -10 6 0 13 7 16 15 5 11
11 12 25 4 20 -10 39 -5 39 12 0 6 -4 8 -9 5 -5 -3 -15 2 -22 11 -12 15 -12
16 6 9 32 -12 39 -12 40 1 0 16 15 29 15 14 0 -8 6 -11 16 -7 8 3 12 2 9 -3
-3 -5 -1 -12 5 -16 7 -4 7 -13 -1 -26 -12 -23 -6 -35 10 -24 6 3 8 11 5 17 -4
6 0 14 7 19 11 7 11 9 1 9 -7 0 -10 4 -7 10 3 5 -3 15 -15 22 -25 16 -25 23 0
25 11 1 18 -2 15 -8 -4 -5 -2 -9 4 -9 17 0 24 22 10 31 -10 6 -8 8 8 6 12 0
19 -5 17 -9 -3 -4 2 -8 10 -8 9 0 16 -5 16 -11 0 -5 5 -7 10 -4 6 4 4 12 -5
21 -21 22 -19 33 10 40 14 3 23 9 20 13 -2 4 10 6 28 4 25 -2 28 -1 12 6 -19
8 -19 9 2 12 17 3 20 8 13 19 -8 12 -15 12 -60 -2 -45 -15 -50 -15 -39 -1 15
17 21 43 11 43 -4 0 -35 -19 -70 -41z m58 18 c0 -6 -88 -67 -96 -67 -4 0 15
16 42 35 49 35 54 38 54 32z m-251 -236 c7 -5 9 -11 5 -14 -5 -3 -15 1 -22 9
-14 16 -5 18 17 5z m-59 -85 c0 -3 -4 -8 -10 -11 -5 -3 -10 -1 -10 4 0 6 5 11
10 11 6 0 10 -2 10 -4z m-105 -56 c-3 -5 -11 -10 -16 -10 -6 0 -7 5 -4 10 3 6
11 10 16 10 6 0 7 -4 4 -10z m415 -55 c0 -8 5 -15 11 -15 5 0 7 -5 4 -10 -9
-14 -45 7 -45 25 0 8 7 15 15 15 8 0 15 -7 15 -15z m-734 -45 c-37 -27 -71
-50 -76 -50 -6 0 -10 -4 -10 -10 0 -5 -5 -10 -10 -10 -6 0 -5 8 2 20 7 11 18
20 25 20 7 0 23 15 35 33 13 19 28 32 35 30 7 -3 20 0 30 6 46 27 30 6 -31
-39z m564 40 c0 -5 -7 -10 -16 -10 -8 0 -12 5 -9 10 3 6 10 10 16 10 5 0 9 -4
9 -10z m-150 -28 c0 -12 -3 -12 -15 -2 -8 7 -15 13 -15 15 0 1 7 2 15 2 8 0
15 -7 15 -15z m100 8 c0 -5 -2 -10 -4 -10 -3 0 -8 5 -11 10 -3 6 -1 10 4 10 6
0 11 -4 11 -10z m80 -31 c-9 -15 -7 -21 5 -25 8 -3 13 -10 10 -14 -3 -4 2 -10
10 -14 26 -10 17 -27 -11 -20 -52 13 -88 74 -44 74 11 0 20 7 20 16 0 8 5 12
10 9 7 -4 7 -13 0 -26z m70 11 c0 -5 9 -10 20 -10 11 0 20 -5 20 -11 0 -18
-55 -6 -58 14 -2 9 1 17 7 17 6 0 11 -4 11 -10z m-153 -32 c-3 -8 -6 -5 -6 6
-1 11 2 17 5 13 3 -3 4 -12 1 -19z m230 0 c-3 -8 -6 -5 -6 6 -1 11 2 17 5 13
3 -3 4 -12 1 -19z m-340 -17 c0 -11 -5 -18 -9 -15 -4 3 -5 11 -1 19 7 21 12
19 10 -4z m269 -6 c9 -8 12 -15 7 -16 -4 0 1 -4 12 -9 17 -8 16 -9 -9 -7 -22
1 -30 8 -32 25 -4 26 2 28 22 7z m66 -17 c-6 -6 -15 -8 -19 -4 -4 4 -1 11 7
16 19 12 27 3 12 -12z m-435 -5 c3 -10 15 -29 27 -42 14 -16 16 -22 6 -19 -8
3 -22 18 -30 34 -8 16 -19 32 -25 36 -6 5 -5 8 3 8 7 0 15 -8 19 -17z m53 -96
c29 -16 58 -26 65 -23 15 6 29 -21 15 -29 -14 -9 -120 52 -152 86 -16 16 -28
39 -28 52 0 18 5 15 24 -18 16 -26 42 -50 76 -68z m150 73 c-12 -8 -9 -10 10
-10 20 -1 17 -4 -15 -15 -22 -8 -51 -14 -65 -14 -21 1 -20 3 10 12 19 6 41 19
49 30 7 10 16 16 19 12 4 -3 0 -10 -8 -15z m236 -18 c-5 -15 -15 -19 -43 -17
-20 0 -38 6 -40 12 -2 6 6 8 21 6 16 -3 32 1 42 11 20 20 28 15 20 -12z m-166
8 c0 -5 -4 -10 -10 -10 -5 0 -10 5 -10 10 0 6 5 10 10 10 6 0 10 -4 10 -10z
m70 -42 c0 -10 5 -18 11 -18 6 0 9 -9 6 -19 -3 -14 -1 -18 9 -14 8 3 14 11 14
18 0 8 8 11 19 8 13 -3 20 1 23 12 3 15 6 14 23 -6 16 -18 17 -21 3 -16 -10 3
-19 0 -22 -9 -3 -9 -11 -12 -17 -9 -5 4 -18 0 -28 -9 -16 -15 -19 -15 -37 5
-11 13 -20 37 -20 61 -1 27 1 36 7 27 5 -8 9 -22 9 -31z m1176 21 c5 -8 -17
-14 -38 -10 -5 0 -8 -6 -8 -14 0 -8 -7 -15 -16 -15 -10 0 -14 6 -11 14 3 7 1
18 -4 23 -7 7 4 10 31 10 22 0 43 -4 46 -8z m-1299 -31 c-3 -7 -5 -2 -5 12 0
14 2 19 5 13 2 -7 2 -19 0 -25z m-767 7 c-7 -8 -20 -15 -29 -15 -11 0 -8 5 9
14 33 19 35 19 20 1z m495 -5 c-2 -30 -22 -46 -21 -18 1 18 11 36 22 38 0 0 0
-9 -1 -20z m1555 -10 c0 -5 -4 -10 -10 -10 -5 0 -10 5 -10 10 0 6 5 10 10 10
6 0 10 -4 10 -10z m108 -3 c8 -10 6 -16 -10 -26 -18 -11 -20 -11 -15 2 3 8 0
20 -6 26 -8 8 -7 11 5 11 8 0 20 -6 26 -13z m-58 -1 c0 -3 -4 -8 -10 -11 -5
-3 -10 -1 -10 4 0 6 5 11 10 11 6 0 10 -2 10 -4z m-1634 -44 c92 -83 52 -185
-116 -297 -85 -57 -213 -115 -277 -125 -138 -22 -275 2 -336 59 -25 23 -28 32
-24 69 3 32 15 54 48 91 24 27 49 49 55 50 6 1 19 10 29 21 10 11 26 20 37 20
10 0 18 4 18 9 0 14 101 63 117 57 9 -4 12 -13 8 -26 -4 -11 -2 -20 4 -20 23
0 10 -16 -15 -18 -20 -1 -25 2 -20 13 3 8 1 15 -4 15 -6 0 -10 -4 -10 -10 0
-5 -9 -10 -19 -10 -11 0 -21 -5 -23 -11 -2 -5 -12 -11 -23 -13 -11 -2 -19 -10
-19 -20 1 -11 -6 -16 -27 -16 -15 0 -34 -8 -41 -18 -7 -10 -21 -21 -32 -25
-11 -4 -16 -13 -12 -22 3 -8 0 -14 -6 -12 -5 1 -12 -7 -14 -18 -1 -11 -8 -21
-13 -23 -6 -2 -11 -14 -11 -26 0 -28 48 -79 67 -72 8 3 16 -1 20 -9 3 -10 12
-13 24 -10 11 4 19 2 19 -2 0 -13 77 -8 94 6 11 9 16 9 21 0 4 -6 19 -9 35 -6
15 3 31 2 37 -4 6 -6 17 -2 31 11 12 12 22 16 22 10 0 -14 16 -13 32 3 7 6 19
12 27 12 8 0 16 6 19 13 2 7 -2 10 -11 6 -8 -3 -18 -1 -22 5 -4 7 4 11 19 11
14 0 26 5 26 12 0 6 7 3 16 -8 11 -13 17 -15 20 -7 3 7 14 23 25 35 14 17 17
18 13 5 -5 -14 -3 -16 17 -9 13 5 26 20 29 33 4 16 8 20 13 12 6 -10 12 -10
27 0 11 6 20 17 20 24 0 6 10 13 23 15 12 2 22 10 22 18 0 9 -7 14 -18 12 -16
-3 -17 0 -7 17 8 16 8 21 -2 22 -10 0 -10 2 0 6 7 3 20 -3 27 -13 12 -15 14
-16 15 -4 0 9 -13 23 -29 33 -24 14 -30 15 -34 3 -3 -8 -3 -23 0 -34 2 -11 0
-23 -6 -26 -7 -5 -11 5 -11 28 0 38 -10 45 -30 21 -16 -19 -30 -19 -30 -1 0 8
-10 17 -22 19 -13 2 -6 3 15 1 32 -4 37 -1 37 16 0 11 7 20 15 20 8 0 15 5 15
10 0 6 -8 10 -17 10 -25 0 -3 18 27 22 14 1 28 8 33 13 4 6 13 3 22 -9 8 -11
15 -14 15 -8 0 7 8 12 18 11 10 0 12 -3 5 -6 -15 -6 -17 -43 -3 -43 6 0 10 -9
10 -20 0 -11 7 -20 15 -20 18 0 20 16 3 23 -10 4 -10 8 0 15 12 8 12 13 0 33
-18 32 -29 40 -52 33 -11 -4 -16 -2 -12 4 7 12 -17 22 -52 21 -15 0 -21 -3
-14 -6 18 -7 15 -23 -4 -23 -9 0 -23 -8 -31 -17 -13 -16 -13 -16 -7 7 4 14 12
28 18 32 7 5 4 8 -6 8 -10 0 -18 -4 -18 -10 0 -5 -9 -10 -19 -10 -11 0 -21 -8
-23 -17 -3 -15 -5 -15 -22 3 -17 17 -19 17 -13 2 4 -11 2 -18 -5 -18 -6 0 -20
8 -31 18 -20 17 -20 16 -14 -20 7 -46 -8 -60 -17 -17 -10 51 -7 59 21 70 35
13 124 26 188 28 44 1 55 -3 91 -37z m39 18 c-3 -5 -1 -10 6 -10 7 0 10 -3 6
-6 -9 -9 -28 6 -22 17 4 5 8 9 11 9 3 0 2 -4 -1 -10z m85 -35 c0 -7 7 -12 16
-11 25 2 43 -32 24 -44 -8 -5 -12 -10 -8 -10 3 0 14 -3 24 -7 12 -4 15 -3 10
5 -4 7 -1 12 8 12 21 0 21 -16 0 -24 -8 -3 -12 -11 -9 -16 5 -8 15 -6 30 4 13
9 31 13 39 10 19 -7 21 -20 4 -30 -7 -4 -8 -3 -4 4 11 19 -19 14 -45 -7 -13
-10 -29 -16 -36 -14 -6 2 -14 -6 -18 -17 -4 -12 -16 -31 -26 -41 -24 -24 -69
-43 -69 -29 0 6 6 10 13 10 26 0 70 50 70 80 0 30 12 40 20 18 2 -7 8 -9 13
-5 11 11 -26 39 -43 33 -8 -3 -10 1 -6 12 4 12 3 14 -5 7 -8 -8 -9 -21 -3 -43
11 -36 7 -39 -16 -17 -8 9 -12 23 -9 31 3 9 -3 27 -14 41 -19 25 -27 73 -14
86 9 9 54 -23 54 -38z m1641 25 c10 -6 19 -16 19 -23 0 -9 -2 -9 -8 0 -4 7
-19 16 -32 22 -14 5 -19 10 -12 10 7 1 22 -4 33 -9z m-1180 -17 c9 -10 9 -14
2 -10 -15 9 -37 -29 -29 -49 3 -9 1 -12 -4 -9 -6 3 -10 13 -10 21 0 17 -20 19
-21 2 0 -10 -2 -10 -6 0 -2 6 -11 12 -19 12 -8 0 -14 4 -14 9 0 5 11 8 25 6
14 -1 28 2 31 7 3 4 10 6 15 3 5 -4 9 -2 9 4 0 5 -6 12 -12 14 -8 4 -7 6 3 6
9 1 23 -7 30 -16z m896 -8 c3 -9 3 -19 -1 -22 -7 -7 -36 16 -36 28 0 15 30 10
37 -6z m160 -17 c-3 -8 -6 -5 -6 6 -1 11 2 17 5 13 3 -3 4 -12 1 -19z m63 12
c0 -5 -7 -10 -16 -10 -8 0 -12 5 -9 10 3 6 10 10 16 10 5 0 9 -4 9 -10z
m-1240 -19 c0 -12 -20 -25 -27 -18 -7 7 6 27 18 27 5 0 9 -4 9 -9z m1370 -1
c0 -5 -2 -10 -4 -10 -3 0 -8 5 -11 10 -3 6 -1 10 4 10 6 0 11 -4 11 -10z
m-1413 -27 c-9 -8 -48 8 -42 18 4 5 14 5 26 -2 12 -6 18 -13 16 -16z m-602 7
c3 -5 -1 -10 -9 -10 -20 0 -46 -39 -46 -68 0 -15 -7 -26 -20 -29 -10 -3 -22
-14 -25 -24 -4 -10 -13 -19 -20 -19 -8 0 -17 -5 -21 -12 -5 -8 0 -9 16 -5 17
4 20 3 12 -5 -8 -8 -18 -8 -34 -1 l-23 11 26 12 c29 13 56 70 38 81 -15 9 -2
29 15 23 7 -3 26 9 42 25 31 33 39 37 49 21z m195 0 c0 -5 -5 -10 -11 -10 -5
0 -7 5 -4 10 3 6 8 10 11 10 2 0 4 -4 4 -10z m485 0 c-3 -5 -14 -10 -23 -10
-15 0 -15 2 -2 10 20 13 33 13 25 0z m1020 0 c3 -5 1 -10 -4 -10 -6 0 -11 5
-11 10 0 6 2 10 4 10 3 0 8 -4 11 -10z m388 -40 c15 0 47 -36 47 -52 0 -7 -7
-2 -16 10 -8 12 -28 29 -45 37 -16 9 -29 23 -29 32 0 14 3 13 16 -5 8 -12 21
-22 27 -22z m-339 18 c-7 -11 -34 -10 -34 1 0 6 9 9 19 8 11 0 17 -5 15 -9z
m-1064 -2 c0 -11 -19 -15 -25 -6 -3 5 1 10 9 10 9 0 16 -2 16 -4z m225 -6 c3
-6 -1 -7 -9 -4 -18 7 -21 14 -7 14 6 0 13 -4 16 -10z m-1048 -32 c-3 -7 -5 -2
-5 12 0 14 2 19 5 13 2 -7 2 -19 0 -25z m1003 12 c0 -5 -4 -10 -9 -10 -6 0
-13 5 -16 10 -3 6 1 10 9 10 9 0 16 -4 16 -10z m-1180 -4 c0 -3 -4 -8 -10 -11
-5 -3 -10 -1 -10 4 0 6 5 11 10 11 6 0 10 -2 10 -4z m35 -16 c3 -5 1 -10 -4
-10 -6 0 -11 5 -11 10 0 6 2 10 4 10 3 0 8 -4 11 -10z m2116 -20 c13 0 50 -38
41 -44 -4 -2 -25 12 -47 32 -22 19 -34 32 -27 28 7 -4 12 -2 13 6 1 7 3 5 6
-4 2 -10 9 -18 14 -18z m-961 -5 c-7 -9 -15 -13 -19 -10 -3 3 1 10 9 15 21 14
24 12 10 -5z m-1196 -2 c-5 -5 -12 -12 -15 -16 -3 -5 -9 -2 -12 7 -5 12 0 16
15 16 12 0 17 -3 12 -7z m606 -3 c0 -5 -4 -10 -10 -10 -5 0 -10 5 -10 10 0 6
5 10 10 10 6 0 10 -4 10 -10z m-564 -27 c-7 -7 -26 7 -26 19 0 6 6 6 15 -2 9
-7 13 -15 11 -17z m649 17 c-3 -5 -11 -10 -16 -10 -6 0 -7 5 -4 10 3 6 11 10
16 10 6 0 7 -4 4 -10z m595 -8 c0 -10 -7 -19 -14 -19 -11 0 -13 5 -5 19 5 10
12 18 14 18 3 0 5 -8 5 -18z m90 8 c0 -5 -4 -10 -10 -10 -5 0 -10 5 -10 10 0
6 5 10 10 10 6 0 10 -4 10 -10z m1110 -11 c0 -6 -4 -7 -10 -4 -5 3 -10 11 -10
16 0 6 5 7 10 4 6 -3 10 -11 10 -16z m-2510 -46 c0 -7 -4 -13 -10 -13 -5 0
-10 8 -10 19 0 10 -9 21 -19 24 -24 6 -31 0 -31 -25 0 -10 -5 -18 -11 -18 -6
0 -9 12 -7 28 2 20 9 27 25 27 12 0 25 4 29 8 8 8 33 -29 34 -50z m2469 34
c12 -15 12 -17 -3 -11 -9 3 -16 13 -16 22 0 8 1 13 3 11 1 -2 9 -12 16 -22z
m-1869 3 c0 -5 -2 -10 -4 -10 -3 0 -8 5 -11 10 -3 6 -1 10 4 10 6 0 11 -4 11
-10z m-220 -10 c0 -5 -2 -10 -4 -10 -3 0 -8 5 -11 10 -3 6 -1 10 4 10 6 0 11
-4 11 -10z m980 0 c0 -5 -4 -10 -10 -10 -5 0 -10 5 -10 10 0 6 5 10 10 10 6 0
10 -4 10 -10z m901 -40 c5 0 8 5 7 11 -2 6 3 14 10 16 10 4 10 -1 0 -22 -9
-20 -9 -28 0 -33 7 -5 8 -13 2 -22 -10 -16 -9 -17 -30 25 -8 17 -13 41 -11 55
l5 25 4 -27 c2 -16 8 -28 13 -28z m-1941 30 c0 -5 -7 -10 -15 -10 -8 0 -15 5
-15 10 0 6 7 10 15 10 8 0 15 -4 15 -10z m2108 -5 c13 -12 -8 -15 -32 -4 -20
10 -29 10 -38 1 -17 -17 -38 -15 -38 4 0 14 8 16 51 11 29 -4 54 -9 57 -12z
m76 -10 c-4 -8 -8 -15 -10 -15 -2 0 -4 7 -4 15 0 8 4 15 10 15 5 0 7 -7 4 -15z
m46 5 c0 -5 -2 -10 -4 -10 -3 0 -8 5 -11 10 -3 6 -1 10 4 10 6 0 11 -4 11 -10z
m-2473 -6 c-3 -3 -12 -4 -19 -1 -8 3 -5 6 6 6 11 1 17 -2 13 -5z m343 2 c0
-11 -19 -15 -25 -6 -3 5 1 10 9 10 9 0 16 -2 16 -4z m-75 -26 c3 -5 -1 -10
-10 -10 -9 0 -13 5 -10 10 3 6 8 10 10 10 2 0 7 -4 10 -10z m-105 -10 c0 -5
-4 -10 -10 -10 -5 0 -10 5 -10 10 0 6 5 10 10 10 6 0 10 -4 10 -10z m315 -9
c-3 -6 -11 -11 -17 -11 -6 0 -6 6 2 15 14 17 26 13 15 -4z m955 5 c0 -3 -4 -8
-10 -11 -5 -3 -10 -1 -10 4 0 6 5 11 10 11 6 0 10 -2 10 -4z m-1900 -10 c0 -2
-9 -6 -20 -9 -11 -3 -18 -1 -14 4 5 9 34 13 34 5z m1960 -16 c0 -5 -7 -10 -16
-10 -8 0 -12 5 -9 10 3 6 10 10 16 10 5 0 9 -4 9 -10z m-1700 -20 c0 -5 -7 -7
-15 -4 -8 4 -15 8 -15 10 0 2 7 4 15 4 8 0 15 -4 15 -10z m-203 -17 c19 -9 40
-27 45 -39 6 -13 16 -21 22 -17 6 3 8 3 4 -1 -3 -4 -9 -6 -11 -4 -7 4 -47 -47
-47 -60 0 -5 -17 -21 -38 -36 -45 -31 -81 -35 -39 -5 30 23 37 45 10 35 -9 -4
-20 -1 -25 6 -8 10 -11 10 -15 1 -14 -37 -69 4 -78 59 -4 18 -7 33 -8 34 -1 2
-18 -1 -36 -5 -39 -7 -55 -31 -21 -31 16 0 21 -5 18 -22 -2 -11 2 -23 9 -25 9
-3 10 4 2 29 -11 41 -11 41 1 33 19 -12 42 -74 35 -95 -6 -19 -5 -21 13 -11
31 17 44 14 37 -8 -4 -13 0 -23 11 -29 12 -7 13 -11 5 -16 -7 -4 -18 -3 -26 4
-17 14 -85 3 -85 -15 0 -8 -8 -11 -20 -8 -11 3 -20 8 -20 12 0 4 -9 7 -20 7
-11 0 -20 -5 -20 -11 0 -5 -5 -3 -10 5 -12 20 13 29 60 22 32 -5 34 -4 21 11
-15 19 -1 23 17 5 9 -9 12 -7 12 9 0 16 -5 21 -20 18 -19 -4 -26 13 -21 53 2
11 -11 16 -31 13 -5 0 -8 6 -8 15 0 11 -6 14 -22 9 l-23 -7 20 20 c50 51 233
78 302 45z m1950 11 c-3 -3 -12 -4 -19 -1 -8 3 -5 6 6 6 11 1 17 -2 13 -5z
m-1758 -26 c12 -3 12 -6 -2 -11 -11 -4 -21 1 -28 16 -10 19 -10 20 2 11 8 -6
21 -13 28 -16z m51 -19 c0 -11 -4 -17 -10 -14 -5 3 -10 15 -10 26 0 11 5 17
10 14 6 -3 10 -15 10 -26z m50 1 c0 -16 -4 -30 -10 -30 -11 0 -14 43 -3 53 11
12 13 8 13 -23z m1697 8 c-3 -8 -6 -5 -6 6 -1 11 2 17 5 13 3 -3 4 -12 1 -19z
m58 -8 c3 -5 -1 -10 -10 -10 -9 0 -13 5 -10 10 3 6 8 10 10 10 2 0 7 -4 10
-10z m-1703 -12 c-9 -9 -15 -9 -24 0 -9 9 -7 12 12 12 19 0 21 -3 12 -12z m78
-3 c0 -8 -4 -15 -10 -15 -5 0 -10 7 -10 15 0 8 5 15 10 15 6 0 10 -7 10 -15z
m2157 -33 c-14 -17 -22 0 -12 26 5 14 7 14 15 2 5 -9 4 -20 -3 -28z m-507 18
c11 -7 7 -10 -18 -10 -20 0 -31 4 -27 10 8 13 26 13 45 0z m-2570 -10 c0 -5
-4 -10 -10 -10 -5 0 -10 5 -10 10 0 6 5 10 10 10 6 0 10 -4 10 -10z m2710 -10
c0 -5 -4 -10 -10 -10 -5 0 -10 5 -10 10 0 6 5 10 10 10 6 0 10 -4 10 -10z
m326 -15 c-11 -8 -29 -15 -40 -15 -17 1 -15 4 9 15 40 18 55 18 31 0z m-406
-15 c0 -5 -5 -10 -11 -10 -5 0 -7 5 -4 10 3 6 8 10 11 10 2 0 4 -4 4 -10z
m-1980 -4 c0 -3 -4 -8 -10 -11 -5 -3 -10 -1 -10 4 0 6 5 11 10 11 6 0 10 -2
10 -4z m-593 -19 c16 -25 66 -57 90 -57 20 0 22 -3 14 -19 -9 -16 -7 -20 14
-23 13 -3 29 -2 36 3 18 11 57 -22 51 -43 -6 -24 -22 -23 -22 2 0 11 -7 20
-15 20 -18 0 -19 -12 -3 -28 15 -15 11 -18 -40 -26 -33 -5 -43 -3 -39 6 2 7
15 12 28 10 23 -3 23 -2 5 13 -22 17 -56 20 -56 5 0 -5 -6 -10 -14 -10 -18 0
-29 -27 -14 -36 6 -4 17 1 23 10 11 14 13 15 18 2 8 -21 -5 -27 -72 -33 -97
-9 -171 25 -171 79 0 23 -4 28 -25 28 -29 0 -49 -32 -41 -66 5 -18 2 -24 -9
-24 -9 0 -14 4 -10 10 3 5 6 25 7 44 1 32 4 35 55 51 58 19 77 34 41 36 -14 1
-4 7 27 16 28 9 54 22 58 29 10 18 53 18 64 1z m538 -7 c3 -5 -1 -10 -10 -10
-9 0 -13 5 -10 10 3 6 8 10 10 10 2 0 7 -4 10 -10z m-345 -30 c0 -5 -5 -10
-11 -10 -5 0 -7 5 -4 10 3 6 8 10 11 10 2 0 4 -4 4 -10z m370 6 c0 -2 -9 -6
-20 -9 -11 -3 -20 -1 -20 4 0 5 9 9 20 9 11 0 20 -2 20 -4z m-53 -22 c-3 -3
-12 -4 -19 -1 -8 3 -5 6 6 6 11 1 17 -2 13 -5z m-242 -53 c-3 -12 -13 -21 -20
-21 -9 0 -12 6 -9 15 4 8 10 12 15 9 5 -3 9 3 9 12 0 10 3 15 6 11 3 -3 3 -15
-1 -26z m-533 -8 c-6 -2 -10 -9 -6 -14 3 -5 -2 -9 -10 -9 -9 0 -16 4 -16 9 0
10 18 19 35 19 6 0 4 -2 -3 -5z m1163 -3 c3 -5 1 -10 -4 -10 -6 0 -11 5 -11
10 0 6 2 10 4 10 3 0 8 -4 11 -10z m-1220 -31 c-5 -14 -3 -19 3 -15 13 8 42
-3 42 -16 0 -6 -7 -8 -15 -4 -8 3 -15 1 -15 -5 0 -12 -48 -8 -85 5 -20 8 -20
7 -1 -8 20 -16 20 -16 0 -18 -10 0 -26 -1 -34 0 -8 0 -18 -6 -23 -13 -4 -8
-14 -12 -21 -9 -8 3 -17 1 -21 -5 -3 -6 -13 -11 -21 -11 -17 0 -19 30 -1 31 6
1 17 2 22 4 6 1 15 3 20 4 6 1 3 5 -5 11 -9 6 -19 5 -28 -2 -10 -9 -16 -8 -23
3 -5 8 -9 9 -9 2 0 -12 -58 -29 -68 -19 -3 4 0 12 8 19 10 9 11 9 6 0 -10 -19
1 -16 34 9 22 16 32 19 43 10 9 -8 17 -8 24 -1 6 6 28 12 49 13 22 1 50 7 64
13 26 11 53 21 58 22 2 1 0 -9 -3 -20z m131 -16 c-10 -10 -19 5 -10 18 6 11 8
11 12 0 2 -7 1 -15 -2 -18z m954 -22 c-22 -32 -30 -38 -30 -22 0 12 41 63 47
57 3 -3 -5 -19 -17 -35z m181 -13 c12 -24 27 -53 33 -65 6 -13 14 -23 19 -23
4 0 7 -4 7 -10 0 -15 -27 -1 -34 18 -9 23 -31 61 -45 75 -11 11 -16 47 -6 47
2 0 14 -19 26 -42z m-44 26 c-3 -3 -12 -4 -19 -1 -8 3 -5 6 6 6 11 1 17 -2 13
-5z m-707 -13 c0 -5 -10 -11 -22 -14 -22 -6 -22 -6 -4 8 23 17 26 18 26 6z
m680 -13 c0 -5 -6 -6 -12 -2 -10 6 -10 4 -2 -7 6 -8 11 -27 12 -44 1 -16 7
-34 12 -39 19 -19 10 -29 -10 -11 -11 10 -29 16 -43 13 -21 -4 -23 -1 -19 16
3 12 9 23 13 26 4 3 10 19 13 35 2 17 5 31 5 32 3 7 31 -11 31 -19z m-1491
-22 c-13 -11 -50 -26 -45 -18 3 6 0 13 -6 15 -7 3 2 6 21 6 19 1 32 -1 30 -3z
m1541 -6 c0 -5 -4 -10 -10 -10 -5 0 -10 5 -10 10 0 6 5 10 10 10 6 0 10 -4 10
-10z m2560 -29 c-6 -12 -18 -21 -28 -21 -10 0 -13 3 -6 8 6 4 17 18 24 32 7
14 15 20 17 13 3 -7 -1 -21 -7 -32z m-2760 12 c0 -5 -8 -17 -17 -28 -14 -18
-15 -18 -9 -2 3 10 6 23 6 28 0 5 5 9 10 9 6 0 10 -3 10 -7z m-1283 -19 c-3
-3 -12 -4 -19 -1 -8 3 -5 6 6 6 11 1 17 -2 13 -5z m617 -9 c-4 -8 -8 -15 -10
-15 -2 0 -4 7 -4 15 0 8 4 15 10 15 5 0 7 -7 4 -15z m896 -9 c0 -3 -4 -8 -10
-11 -5 -3 -10 -1 -10 4 0 6 5 11 10 11 6 0 10 -2 10 -4z m-43 -38 c-3 -8 -6
-5 -6 6 -1 11 2 17 5 13 3 -3 4 -12 1 -19z m-1257 8 c0 -3 -4 -8 -10 -11 -5
-3 -10 -1 -10 4 0 6 5 11 10 11 6 0 10 -2 10 -4z m40 -12 c0 -8 -4 -12 -10 -9
-5 3 -10 10 -10 16 0 5 5 9 10 9 6 0 10 -7 10 -16z m1255 6 c3 -5 1 -10 -4
-10 -6 0 -11 5 -11 10 0 6 2 10 4 10 3 0 8 -4 11 -10z m56 -14 c-10 -11 -61
-20 -61 -10 0 3 40 16 69 23 2 1 -2 -5 -8 -13z m-1266 -6 c3 -5 1 -10 -4 -10
-6 0 -11 5 -11 10 0 6 2 10 4 10 3 0 8 -4 11 -10z m80 0 c3 -5 -1 -10 -10 -10
-9 0 -13 5 -10 10 3 6 8 10 10 10 2 0 7 -4 10 -10z m702 4 c-3 -3 -12 -4 -19
-1 -8 3 -5 6 6 6 11 1 17 -2 13 -5z m28 -3 c3 -5 2 -12 -3 -15 -5 -3 -9 1 -9
9 0 17 3 19 12 6z m49 -7 c12 -5 9 -12 -15 -35 -30 -29 -46 -38 -34 -19 6 9
-10 14 -42 13 -7 -1 -10 4 -7 9 4 5 21 7 39 4 24 -5 34 -2 38 8 3 8 1 17 -6
20 -18 7 8 7 27 0z m511 -42 c-8 -2 -22 4 -31 12 -8 9 -20 16 -25 16 -5 0 -9
5 -9 10 0 6 18 0 40 -12 24 -14 34 -24 25 -26z m-1455 28 c0 -5 -4 -10 -10
-10 -5 0 -10 5 -10 10 0 6 5 10 10 10 6 0 10 -4 10 -10z m-197 -20 c-4 -16
-11 -19 -27 -14 -33 10 -45 27 -13 19 17 -5 27 -3 27 4 0 6 4 11 9 11 5 0 7
-9 4 -20z m51 4 c5 -14 4 -15 -9 -4 -17 14 -19 20 -6 20 5 0 12 -7 15 -16z
m191 6 c3 -5 1 -10 -4 -10 -6 0 -11 5 -11 10 0 6 2 10 4 10 3 0 8 -4 11 -10z
m83 -5 c2 -2 -11 -5 -28 -7 -21 -3 -30 0 -30 9 0 10 8 11 28 7 15 -4 28 -8 30
-9z m162 1 c0 -11 -19 -15 -25 -6 -3 5 1 10 9 10 9 0 16 -2 16 -4z m430 0 c0
-11 -19 -15 -25 -6 -3 5 1 10 9 10 9 0 16 -2 16 -4z m-1077 -18 c-4 -7 -6 -21
-5 -30 2 -10 -2 -18 -7 -18 -12 0 -15 43 -4 53 11 12 24 7 16 -5z m57 1 c-11
-8 -8 -9 13 -4 19 4 26 2 22 -5 -3 -6 3 -10 15 -10 24 0 38 -26 21 -43 -9 -9
-13 -6 -17 11 -4 12 -10 20 -14 17 -5 -3 -11 -1 -15 5 -3 5 -15 10 -26 10 -19
0 -25 11 -12 23 3 4 11 7 17 7 6 0 4 -5 -4 -11z m137 -5 c-3 -3 -12 -4 -19 -1
-8 3 -5 6 6 6 11 1 17 -2 13 -5z m203 -4 c0 -5 -4 -10 -10 -10 -5 0 -10 5 -10
10 0 6 5 10 10 10 6 0 10 -4 10 -10z m-195 -20 c3 -6 -4 -10 -17 -10 -18 0
-20 2 -8 10 19 12 18 12 25 0z m35 0 c0 -5 -4 -10 -10 -10 -5 0 -10 5 -10 10
0 6 5 10 10 10 6 0 10 -4 10 -10z m790 0 c0 -5 -4 -10 -10 -10 -5 0 -10 5 -10
10 0 6 5 10 10 10 6 0 10 -4 10 -10z m103 -11 c4 -16 3 -18 -9 -8 -7 6 -11 15
-8 20 8 13 11 11 17 -12z m51 6 c-4 -8 -11 -12 -16 -9 -6 4 -5 10 3 15 19 12
19 11 13 -6z m-404 -10 c14 -16 10 -18 -14 -9 -9 3 -16 10 -16 15 0 14 16 11
30 -6z m50 5 c0 -5 -4 -10 -10 -10 -5 0 -10 5 -10 10 0 6 5 10 10 10 6 0 10
-4 10 -10z m54 -11 c-3 -5 -10 -7 -15 -3 -5 3 -7 10 -3 15 3 5 10 7 15 3 5 -3
7 -10 3 -15z m196 17 c0 -3 -4 -8 -10 -11 -5 -3 -10 -1 -10 4 0 6 5 11 10 11
6 0 10 -2 10 -4z m-1018 -13 c-10 -4 -10 -8 0 -21 8 -10 9 -13 1 -9 -6 4 -13
3 -15 -2 -1 -5 -11 -3 -22 4 -23 18 -12 35 22 34 15 0 21 -3 14 -6z m1178 -3
c0 -5 -4 -10 -9 -10 -6 0 -13 5 -16 10 -3 6 1 10 9 10 9 0 16 -4 16 -10z
m-1280 -10 c12 -8 9 -10 -12 -10 -16 0 -28 5 -28 10 0 13 20 13 40 0z m440 -4
c0 -3 -4 -8 -10 -11 -5 -3 -10 -1 -10 4 0 6 5 11 10 11 6 0 10 -2 10 -4z m880
-6 c0 -5 -7 -10 -16 -10 -8 0 -12 5 -9 10 3 6 10 10 16 10 5 0 9 -4 9 -10z
m-1050 -9 c0 -5 -7 -11 -15 -15 -15 -5 -20 5 -8 17 9 10 23 9 23 -2z m54 -3
c-3 -4 -12 -8 -20 -8 -8 0 -14 4 -14 8 0 4 9 8 19 8 11 0 17 -4 15 -8z m724
-8 c8 0 13 -3 9 -6 -10 -10 -48 7 -40 19 5 8 8 8 11 -1 2 -7 11 -12 20 -12z
m177 0 c3 -5 1 -10 -4 -10 -6 0 -11 5 -11 10 0 6 2 10 4 10 3 0 8 -4 11 -10z
m155 -5 c0 -8 -7 -15 -15 -15 -26 0 -18 20 13 29 1 1 2 -6 2 -14z m-460 -5 c0
-5 -4 -10 -10 -10 -5 0 -10 5 -10 10 0 6 5 10 10 10 6 0 10 -4 10 -10z m268
-20 c15 0 15 -2 2 -10 -22 -15 -26 -13 -27 18 0 15 1 19 4 10 2 -10 12 -18 21
-18z m-1188 10 c-8 -5 -19 -10 -25 -10 -5 0 -3 5 5 10 8 5 20 10 25 10 6 0 3
-5 -5 -10z m187 -12 c-3 -8 -6 -5 -6 6 -1 11 2 17 5 13 3 -3 4 -12 1 -19z
m-457 -4 c0 -8 -4 -12 -10 -9 -5 3 -10 10 -10 16 0 5 5 9 10 9 6 0 10 -7 10
-16z m653 -4 c3 -11 1 -20 -4 -20 -5 0 -9 4 -9 8 0 11 -48 13 -55 2 -3 -6 -11
-10 -18 -10 -26 0 34 32 74 39 4 0 9 -8 12 -19z m577 4 c0 -8 -5 -12 -10 -9
-6 4 -8 11 -5 16 9 14 15 11 15 -7z m-920 -4 c0 -5 -12 -10 -27 -9 l-28 1 25
8 c14 4 26 8 28 9 1 1 2 -3 2 -9z m1400 -10 c0 -5 -7 -7 -15 -4 -8 4 -12 10
-9 15 6 11 24 2 24 -11z m-1205 -8 c-3 -3 -11 0 -18 7 -9 10 -8 11 6 5 10 -3
15 -9 12 -12z m305 8 c0 -5 -4 -10 -10 -10 -5 0 -10 5 -10 10 0 6 5 10 10 10
6 0 10 -4 10 -10z m787 4 c-3 -3 -12 -4 -19 -1 -8 3 -5 6 6 6 11 1 17 -2 13
-5z m-750 -10 c-3 -3 -12 -4 -19 -1 -8 3 -5 6 6 6 11 1 17 -2 13 -5z m-377
-14 c0 -5 -4 -10 -10 -10 -5 0 -10 5 -10 10 0 6 5 10 10 10 6 0 10 -4 10 -10z
m1180 0 c8 -5 11 -10 5 -10 -5 0 -17 5 -25 10 -8 5 -10 10 -5 10 6 0 17 -5 25
-10z m-1860 -16 c0 -8 -4 -12 -10 -9 -5 3 -10 10 -10 16 0 5 5 9 10 9 6 0 10
-7 10 -16z m494 -9 c-4 -8 -8 -15 -10 -15 -2 0 -4 7 -4 15 0 8 4 15 10 15 5 0
7 -7 4 -15z m316 11 c0 -9 -30 -14 -35 -6 -4 6 3 10 14 10 12 0 21 -2 21 -4z
m1175 -6 c4 -7 -3 -8 -22 -4 -38 9 -42 14 -10 14 14 0 29 -5 32 -10z m-1714
-20 c10 0 19 -4 19 -10 0 -13 -3 -13 -34 1 -14 7 -22 17 -19 22 5 8 8 7 11 -1
2 -7 12 -12 23 -12z m146 -2 c-3 -8 -6 -5 -6 6 -1 11 2 17 5 13 3 -3 4 -12 1
-19z m240 -24 c-3 -3 -12 -4 -19 -1 -8 3 -5 6 6 6 11 1 17 -2 13 -5z"/>
<path d="M3790 2290 c0 -12 4 -19 10 -15 5 3 13 -9 18 -27 8 -26 11 -30 17
-16 5 12 -1 28 -19 49 -24 28 -26 29 -26 9z"/>
<path d="M3920 2365 c0 -8 9 -15 20 -15 11 0 20 -4 20 -10 0 -5 9 -10 20 -10
11 0 20 5 20 10 0 6 -8 10 -19 10 -10 0 -24 7 -31 15 -7 8 -16 15 -21 15 -5 0
-9 -7 -9 -15z"/>
<path d="M2884 2024 c1 -22 5 -33 13 -30 6 3 14 0 17 -7 3 -9 5 -9 5 0 1 6 -3
15 -9 18 -5 3 -10 15 -10 25 0 10 -4 21 -8 24 -5 3 -8 -11 -8 -30z"/>
<path d="M2827 2043 c-12 -11 -8 -21 12 -26 25 -6 34 2 20 20 -13 14 -22 16
-32 6z"/>
<path d="M2960 2019 c6 -10 7 -19 3 -20 -4 0 3 -5 16 -10 25 -10 43 -3 25 9
-6 4 -13 13 -16 21 -2 8 -12 15 -21 17 -14 2 -15 -1 -7 -17z"/>
<path d="M2920 2020 c0 -5 5 -10 10 -10 6 0 10 5 10 10 0 6 -4 10 -10 10 -5 0
-10 -4 -10 -10z"/>
<path d="M2848 1982 c-3 -11 -2 -26 3 -33 12 -20 23 15 11 37 -8 15 -10 14
-14 -4z"/>
<path d="M2927 1953 c22 -17 50 -16 50 0 0 9 -12 13 -34 13 -29 -1 -31 -3 -16
-13z"/>
<path d="M2499 1895 c-1 -3 -2 -11 -3 -17 -1 -7 -7 -12 -14 -10 -7 1 -12 -8
-12 -20 l0 -21 23 21 c13 12 26 19 30 16 3 -3 11 -3 18 2 9 5 7 11 -6 21 -19
13 -34 17 -36 8z"/>
<path d="M2560 1861 c0 -6 5 -13 10 -16 6 -3 10 1 10 9 0 9 -4 16 -10 16 -5 0
-10 -4 -10 -9z"/>
<path d="M2602 1840 c0 -14 2 -19 5 -12 2 6 2 18 0 25 -3 6 -5 1 -5 -13z"/>
<path d="M2530 1829 c-12 -7 -12 -9 -1 -9 7 0 11 -6 7 -15 -4 -11 1 -15 17
-15 16 0 18 3 8 9 -7 5 -11 13 -7 19 9 15 -7 22 -24 11z"/>
<path d="M2417 1824 c-16 -17 -5 -45 26 -64 32 -20 107 -28 107 -11 0 14 -29
21 -36 9 -5 -8 -11 -6 -18 5 -7 8 -23 17 -36 19 -16 2 -26 11 -30 26 -3 13 -8
20 -13 16z"/>
<path d="M2495 1790 c3 -5 11 -10 16 -10 6 0 7 5 4 10 -3 6 -11 10 -16 10 -6
0 -7 -4 -4 -10z"/>
<path d="M2168 1773 c-10 -2 -18 -9 -18 -14 0 -6 9 -7 20 -4 11 4 20 2 20 -4
0 -6 7 -11 15 -11 13 0 13 3 3 20 -7 11 -15 19 -18 19 -3 -1 -13 -3 -22 -6z"/>
<path d="M2090 1740 c0 -6 7 -10 15 -10 8 0 15 2 15 4 0 2 -7 6 -15 10 -8 3
-15 1 -15 -4z"/>
<path d="M4470 3070 c0 -6 7 -10 15 -10 8 0 15 2 15 4 0 2 -7 6 -15 10 -8 3
-15 1 -15 -4z"/>
<path d="M4543 3043 c39 -16 52 -39 17 -30 -11 3 -23 1 -26 -4 -3 -5 1 -9 9
-9 14 0 27 -20 27 -42 0 -6 -13 -7 -31 -3 -23 5 -29 4 -24 -4 4 -7 -5 -23 -19
-38 -20 -20 -26 -22 -26 -9 0 9 -7 16 -15 16 -17 0 -20 -16 -5 -25 15 -9 12
-25 -4 -25 -8 0 -17 11 -20 25 -4 14 -11 25 -16 25 -13 0 -13 -10 4 -57 9 -25
11 -45 5 -54 -6 -10 -9 -6 -9 16 0 28 -1 28 -17 12 -16 -16 -18 -15 -34 15
-16 30 -18 31 -25 14 -5 -13 -3 -21 4 -24 7 -2 9 -8 6 -13 -3 -6 0 -17 7 -25
9 -11 9 -18 1 -26 -9 -9 -12 -7 -12 8 0 24 -37 71 -47 60 -4 -4 -3 -10 3 -14
14 -10 25 -42 14 -42 -5 0 -13 7 -18 16 -7 13 -11 14 -17 3 -5 -7 -4 -14 3
-17 7 -2 10 -7 7 -12 -3 -5 20 -12 50 -15 30 -4 58 -11 61 -16 3 -5 14 -9 25
-9 10 0 28 -6 39 -12 15 -10 25 -10 38 -2 27 17 119 170 124 206 9 80 -11 107
-87 121 -27 5 -26 4 8 -10z m46 -121 c-14 -15 -33 -40 -43 -55 -10 -16 -20
-26 -23 -23 -6 5 27 57 60 93 11 13 23 21 25 18 3 -3 -6 -18 -19 -33z m-103
-140 c-18 -16 -18 -16 -6 6 6 13 14 21 18 18 3 -4 -2 -14 -12 -24z"/>
<path d="M4486 3035 c10 -8 26 -14 34 -14 9 0 4 6 -10 14 -33 19 -49 19 -24 0z"/>
<path d="M4455 3020 c-3 -5 -1 -10 4 -10 6 0 11 5 11 10 0 6 -2 10 -4 10 -3 0
-8 -4 -11 -10z"/>
<path d="M4408 3013 c7 -3 16 -2 19 1 4 3 -2 6 -13 5 -11 0 -14 -3 -6 -6z"/>
<path d="M4365 3001 c-4 -7 0 -8 11 -4 12 4 15 3 10 -5 -4 -7 -2 -12 4 -12 14
0 8 22 -7 27 -6 2 -14 -1 -18 -6z"/>
<path d="M4500 2980 c0 -5 9 -10 21 -10 11 0 17 5 14 10 -3 6 -13 10 -21 10
-8 0 -14 -4 -14 -10z"/>
<path d="M4396 2962 c-9 -10 -16 -23 -16 -28 0 -5 7 0 15 10 15 20 15 20 30 0
8 -10 14 -14 14 -9 0 6 -6 18 -13 27 -12 17 -14 17 -30 0z"/>
<path d="M4450 2975 c0 -3 9 -15 20 -27 22 -24 27 -13 6 15 -13 16 -26 23 -26
12z"/>
<path d="M4335 2930 c-3 -5 -1 -10 4 -10 6 0 11 5 11 10 0 6 -2 10 -4 10 -3 0
-8 -4 -11 -10z"/>
<path d="M4237 2913 c-13 -12 -7 -22 10 -16 11 4 14 3 9 -5 -4 -7 -2 -12 3
-12 13 0 13 3 5 24 -7 17 -16 20 -27 9z"/>
<path d="M4316 2895 c-3 -8 -1 -15 4 -15 6 0 10 7 10 15 0 8 -2 15 -4 15 -2 0
-6 -7 -10 -15z"/>
<path d="M4350 2905 c0 -11 24 -55 30 -55 16 0 18 14 3 36 -13 21 -33 32 -33
19z"/>
<path d="M4154 2868 c-5 -7 -2 -9 9 -5 11 4 14 2 10 -9 -3 -7 0 -14 7 -14 7 0
10 -7 6 -15 -3 -9 0 -15 9 -15 8 0 15 -5 15 -11 0 -5 5 -7 11 -3 8 4 7 9 -2
15 -12 8 -11 11 1 19 8 5 21 10 29 10 11 0 11 -3 0 -17 -12 -14 -12 -16 0 -12
8 3 16 10 19 17 4 14 -36 54 -48 47 -17 -11 -11 -25 8 -18 13 4 14 3 6 -6 -13
-14 -44 -4 -44 15 0 17 -26 19 -36 2z"/>
<path d="M4236 2791 c-4 -5 -2 -12 3 -15 5 -4 12 -2 15 3 4 5 2 12 -3 15 -5 4
-12 2 -15 -3z"/>
<path d="M4430 2691 c0 -9 24 -21 43 -21 6 0 2 7 -9 15 -22 17 -34 19 -34 6z"/>
<path d="M4460 2650 c0 -15 50 -24 63 -11 6 6 7 14 3 18 -4 4 -12 1 -17 -7 -8
-11 -12 -12 -16 -2 -6 14 -33 16 -33 2z"/>
<path d="M4570 2650 c0 -5 5 -10 10 -10 6 0 10 5 10 10 0 6 -4 10 -10 10 -5 0
-10 -4 -10 -10z"/>
<path d="M4620 2640 c8 -5 20 -10 25 -10 6 0 3 5 -5 10 -8 5 -19 10 -25 10 -5
0 -3 -5 5 -10z"/>
<path d="M3128 2333 c7 -3 16 -2 19 1 4 3 -2 6 -13 5 -11 0 -14 -3 -6 -6z"/>
<path d="M4355 2250 c3 -5 10 -10 16 -10 5 0 9 5 9 10 0 6 -7 10 -16 10 -8 0
-12 -4 -9 -10z"/>
<path d="M5890 2105 l-35 -12 41 -4 c35 -4 40 -2 36 13 -2 10 -5 17 -6 17 0
-1 -17 -7 -36 -14z"/>
<path d="M5800 2081 c0 -4 11 -6 25 -3 14 2 25 6 25 8 0 2 -11 4 -25 4 -14 0
-25 -4 -25 -9z"/>
<path d="M5755 2070 c-4 -6 3 -10 14 -10 25 0 27 6 6 13 -8 4 -17 2 -20 -3z"/>
<path d="M5699 2053 c-21 -5 -24 -60 -3 -60 9 0 11 4 5 10 -14 14 -2 37 20 37
10 0 19 5 19 10 0 10 -12 11 -41 3z"/>
<path d="M5401 1883 c-18 -8 -40 -12 -47 -9 -7 3 -16 1 -19 -4 -4 -6 -15 -10
-25 -10 -10 0 -40 -11 -66 -25 -26 -14 -71 -32 -100 -42 -30 -9 -54 -20 -54
-25 0 -10 13 -10 26 0 5 4 34 16 64 26 30 11 69 26 85 35 17 8 44 16 61 17 17
0 36 4 43 8 7 5 42 9 77 10 65 1 92 16 30 16 -19 0 -36 4 -38 8 -1 5 -18 3
-37 -5z"/>
<path d="M6010 1880 c0 -5 5 -10 11 -10 5 0 7 5 4 10 -3 6 -8 10 -11 10 -2 0
-4 -4 -4 -10z"/>
<path d="M5220 1860 c-8 -5 -10 -10 -5 -10 6 0 17 5 25 10 8 5 11 10 5 10 -5
0 -17 -5 -25 -10z"/>
<path d="M5530 1860 c0 -5 11 -10 25 -10 14 0 25 -4 25 -10 0 -5 16 -10 35
-10 19 0 35 -4 35 -10 0 -5 11 -10 24 -10 13 0 26 -7 30 -15 3 -8 15 -15 26
-15 13 0 20 -7 20 -20 0 -11 7 -20 15 -20 8 0 15 4 15 8 0 9 -66 72 -75 72 -8
1 -39 12 -73 27 -18 8 -36 11 -41 8 -5 -3 -12 -1 -16 5 -8 13 -45 13 -45 0z"/>
<path d="M5750 1855 c0 -8 9 -19 20 -25 14 -7 20 -7 20 0 0 5 -4 10 -10 10 -5
0 -10 7 -10 15 0 8 -4 15 -10 15 -5 0 -10 -7 -10 -15z"/>
<path d="M1945 1790 c-55 -13 -216 -80 -246 -101 -16 -11 -29 -27 -29 -35 0
-21 17 -17 23 5 6 25 45 45 192 97 111 40 134 53 60 34z"/>
<path d="M5054 1755 c-17 -13 -17 -14 -2 -15 9 0 20 5 23 11 11 17 0 20 -21 4z"/>
<path d="M4284 1730 c-61 -13 -204 -70 -204 -81 0 -6 9 -7 22 -3 21 6 21 6 5
-10 -23 -23 -21 -29 3 -16 11 6 20 15 20 19 0 5 8 7 19 4 10 -2 24 1 32 9 17
16 31 19 86 21 25 1 37 5 30 10 -7 5 -3 7 10 4 13 -3 25 -1 28 4 4 5 16 8 28
8 12 -1 44 1 70 4 37 3 47 1 43 -9 -4 -10 1 -11 20 -4 31 12 37 12 30 2 -3 -5
29 -9 69 -10 49 -2 75 1 75 8 0 6 -8 9 -17 6 -10 -3 -47 1 -83 9 -56 12 -58
13 -15 8 28 -3 75 -5 105 -4 42 0 51 -2 38 -10 -22 -13 -23 -29 -2 -29 9 0 18
9 21 20 4 16 15 20 52 22 45 2 -66 9 -319 21 -69 4 -143 2 -166 -3z"/>
<path d="M5000 1725 c0 -9 6 -12 15 -9 8 4 15 10 15 15 0 5 -7 9 -15 9 -8 0
-15 -7 -15 -15z"/>
<path d="M5800 1723 c0 -13 20 -39 20 -28 0 6 7 1 15 -9 8 -11 17 -17 20 -14
3 3 -6 17 -19 31 -25 27 -36 33 -36 20z"/>
<path d="M1625 1710 c-16 -7 -17 -9 -3 -9 9 -1 20 4 23 9 7 11 7 11 -20 0z"/>
<path d="M4875 1703 c-27 -7 -69 -14 -93 -17 -41 -3 -60 -11 -51 -20 4 -4 60
3 146 18 12 2 27 7 32 11 6 3 11 0 11 -7 0 -9 3 -9 8 -2 4 6 21 16 37 22 l30
10 -35 -1 c-19 0 -57 -6 -85 -14z"/>
<path d="M1663 1696 c-13 -6 -25 -16 -28 -24 -6 -16 26 0 45 22 14 18 14 18
-17 2z"/>
<path d="M1640 1640 c0 -5 5 -10 11 -10 5 0 7 5 4 10 -3 6 -8 10 -11 10 -2 0
-4 -4 -4 -10z"/>
<path d="M4055 1640 c-3 -5 -1 -10 4 -10 6 0 11 5 11 10 0 6 -2 10 -4 10 -3 0
-8 -4 -11 -10z"/>
<path d="M4180 1635 c-7 -8 -9 -15 -6 -15 4 0 14 7 22 15 9 8 11 15 6 15 -5 0
-15 -7 -22 -15z"/>
<path d="M5865 1640 c4 -6 11 -8 16 -5 14 9 11 15 -7 15 -8 0 -12 -5 -9 -10z"/>
<path d="M1405 1630 c-13 -6 -15 -9 -5 -9 8 0 22 4 30 9 18 12 2 12 -25 0z"/>
<path d="M1477 1615 c3 -8 9 -12 14 -9 12 7 11 11 -5 17 -10 4 -13 1 -9 -8z"/>
<path d="M1650 1603 c0 -7 7 -14 15 -14 8 -1 23 -2 32 -3 9 0 18 5 21 12 3 11
0 12 -18 2 -20 -11 -22 -10 -17 3 4 11 0 15 -14 14 -10 -1 -19 -7 -19 -14z"/>
<path d="M4045 1610 c-3 -5 -15 -10 -26 -10 -11 0 -19 -7 -19 -17 0 -10 4 -14
8 -8 10 14 39 17 47 5 3 -5 11 -10 18 -10 6 0 2 7 -9 15 -17 13 -17 14 -1 15
20 0 23 20 3 20 -8 0 -18 -4 -21 -10z"/>
<path d="M1420 1600 c-13 -9 -13 -10 0 -10 8 0 22 5 30 10 13 9 13 10 0 10 -8
0 -22 -5 -30 -10z"/>
<path d="M3950 1570 c0 -5 -6 -10 -14 -10 -7 0 -19 -7 -26 -15 -8 -9 -9 -15
-2 -15 6 0 14 5 17 10 4 6 12 10 18 9 17 -3 47 11 47 22 0 5 -9 9 -20 9 -11 0
-20 -4 -20 -10z"/>
<path d="M1400 1556 c0 -9 5 -16 10 -16 6 0 10 4 10 9 0 6 -4 13 -10 16 -5 3
-10 -1 -10 -9z"/>
<path d="M1448 1543 c6 -2 18 -2 25 0 6 3 1 5 -13 5 -14 0 -19 -2 -12 -5z"/>
<path d="M3862 1525 c-12 -9 -22 -14 -22 -11 0 3 -9 -2 -20 -11 -27 -23 -25
-37 3 -21 12 7 26 11 30 10 12 -3 39 26 35 38 -2 6 -13 4 -26 -5z"/>
<path d="M3406 1516 c3 -8 15 -17 27 -19 15 -3 12 -5 -10 -6 -17 0 -37 -3 -45
-4 -7 -2 -10 -2 -5 0 13 8 7 21 -11 25 -10 3 -26 0 -35 -7 -21 -15 -22 -26 -2
-19 8 4 15 1 15 -5 0 -6 19 -11 45 -11 33 0 45 -4 45 -15 0 -8 5 -15 11 -15 5
0 7 5 4 10 -3 6 5 10 19 10 13 0 32 3 40 6 12 4 15 2 11 -9 -5 -11 3 -16 30
-21 45 -9 72 0 80 25 7 21 20 25 30 9 3 -5 2 -10 -3 -10 -6 0 -12 -6 -15 -14
-4 -10 0 -12 13 -9 11 3 22 14 25 24 4 10 14 19 23 19 23 0 95 20 90 26 -2 2
-20 -1 -39 -7 -42 -13 -154 -12 -234 2 -33 5 -68 11 -77 12 -10 1 -18 5 -18 9
0 4 -4 8 -10 8 -5 0 -7 -6 -4 -14z m214 -45 c0 -3 -12 -11 -26 -18 -21 -10
-28 -9 -44 7 -19 19 -18 19 25 18 25 0 45 -3 45 -7z"/>
<path d="M3270 1490 c-9 -6 -10 -10 -3 -10 6 0 15 5 18 10 8 12 4 12 -15 0z"/>
<path d="M1070 1486 c0 -2 7 -6 15 -10 8 -3 15 -1 15 4 0 6 -7 10 -15 10 -8 0
-15 -2 -15 -4z"/>
<path d="M1288 1473 c6 -2 18 -2 25 0 6 3 1 5 -13 5 -14 0 -19 -2 -12 -5z"/>
<path d="M3755 1469 c-12 -19 5 -23 22 -6 16 16 16 17 1 17 -9 0 -20 -5 -23
-11z"/>
<path d="M1375 1460 c-3 -5 -2 -10 4 -10 5 0 13 5 16 10 3 6 2 10 -4 10 -5 0
-13 -4 -16 -10z"/>
<path d="M1426 1462 c-7 -12 40 -29 51 -18 4 3 -3 6 -14 6 -12 0 -23 5 -25 12
-3 9 -6 9 -12 0z"/>
<path d="M3703 1463 c-7 -2 -13 -9 -13 -15 0 -12 41 -6 41 7 1 12 -11 15 -28
8z"/>
<path d="M1295 1450 c-17 -6 -16 -8 9 -14 33 -8 42 -3 24 11 -7 6 -22 7 -33 3z"/>
<path d="M1128 1373 c6 -2 18 -2 25 0 6 3 1 5 -13 5 -14 0 -19 -2 -12 -5z"/>
</g>
</svg>
