<svg width="699" height="153" viewBox="0 0 699 153" fill="none" xmlns="http://www.w3.org/2000/svg">
<path d="M48.622 84.6838L0 12.4549L18.7641 0.546176C20.2856 -0.424644 22.3141 -0.0686765 23.4235 1.35519L65.2625 54.3943L92.648 12.4549H130.525L81.903 84.6838V152.253H48.5903V84.6838H48.622ZM73.5035 145.716V83.0335L116.642 18.9594H97.9413L66.9107 65.7852H63.7094L32.6788 18.9594H13.978L57.1166 83.0335V145.716H73.5035ZM18.5106 21.5159H31.506L32.4252 22.6809H19.1762L18.5106 21.5159ZM21.4583 26.1758H34.4538L35.373 27.3408H22.1239L21.4583 26.1758ZM24.6596 30.8357H37.6551L38.5743 32.0007H25.3253L24.6596 30.8357ZM27.861 35.4957H40.6345L41.5537 36.6607H28.5583L27.861 35.4957ZM30.8087 39.9291H43.5823L44.5015 41.0941H31.506L30.8087 39.9291ZM34.01 44.589H46.5617L47.4809 45.754H34.7073L34.01 44.589ZM37.2113 49.249H49.763L50.6822 50.4139H37.9087L37.2113 49.249ZM40.4127 53.9089H52.7425L53.6617 55.0739H41.11L40.4127 53.9089ZM43.3921 58.5688H55.9438L56.863 59.7338H44.3113L43.3921 58.5688ZM46.5617 63.2288H58.8916L59.8107 64.3938H47.2591L46.5617 63.2288ZM49.5412 67.8887H62.0929L63.0121 69.0536H50.4604L49.5412 67.8887ZM52.9643 72.5486H65.0723L65.9915 73.7136H53.6617L52.9643 72.5486ZM55.9438 77.2085H68.2736L69.1928 78.3735H56.6411L55.9438 77.2085ZM59.1134 81.8685H70.7459L71.1896 83.0335H59.3353L59.1134 81.8685ZM59.367 86.5284H71.2214V87.4669H59.367V86.5284ZM59.367 90.9618H71.2214V92.1268H59.367V90.9618ZM59.367 95.6218H71.2214V96.7867H59.367V95.6218ZM59.367 100.282H71.2214V101.447H59.367V100.282ZM59.367 104.942H71.2214V106.107H59.367V104.942ZM59.367 109.602H71.2214V110.767H59.367V109.602ZM59.367 114.261H71.2214V115.426H59.367V114.261ZM59.367 118.921H71.2214V120.086H59.367V118.921ZM59.367 123.581H71.2214V124.746H59.367V123.581ZM59.367 128.241H71.2214V129.406H59.367V128.241ZM59.367 132.901H71.2214V134.066H59.367V132.901ZM59.367 137.335H71.2214V138.5H59.367V137.335ZM59.367 141.995H71.2214V143.16H59.367V141.995Z" fill="white"/>
<path d="M154.557 3.88086H187.87V91.4816C187.87 110.121 196.554 116.658 208.187 116.658C220.961 116.658 228.948 110.121 228.948 91.4816V3.88086H262.482V96.627C262.482 129.732 238.298 148.372 208.155 148.372C176.871 148.372 154.525 128.794 154.525 96.627V3.88086H154.557ZM208.187 141.803C233.512 141.803 254.051 125.493 254.051 96.5946V10.3854L237.379 23.9122V91.4816C237.379 115.008 226.19 123.163 208.155 123.163C191.737 123.163 179.407 115.008 179.407 91.4816V10.3854H162.988V96.5946C162.988 124.813 181.943 141.803 208.187 141.803ZM165.302 62.1303H177.156V63.2953H165.302V62.1303ZM165.302 66.7903H177.156V67.9553H165.302V66.7903ZM165.302 71.4502H177.156V72.6152H165.302V71.4502ZM165.302 76.1102H177.156V77.2752H165.302V76.1102ZM165.302 80.7701H177.156V81.9351H165.302V80.7701ZM165.302 85.4301H177.156V86.5951H165.302V85.4301ZM165.302 90.0901H177.156V91.2551H165.302V90.0901ZM165.302 94.75H177.156L177.378 95.915H165.27V94.75H165.302ZM165.302 99.41H177.378L177.822 100.575H165.27V99.41H165.302ZM165.746 104.07H178.297L178.741 105.235H165.968L165.746 104.07ZM166.665 108.73H179.914L180.358 109.895H166.887L166.665 108.73ZM168.028 113.39H181.943L183.084 114.555H168.25L168.028 113.39ZM170.088 118.05H185.841L187.204 119.215H170.786L170.088 118.05ZM192.688 122.71L195.413 123.875H173.733L172.814 122.71H192.688ZM239.915 127.37L238.552 128.535H178.076L176.935 127.37H239.915ZM233.766 132.03L231.927 133.195H184.447L182.862 132.03H233.766ZM224.637 136.69L220.295 137.855H195.889L191.768 136.69H224.637ZM224.637 122.71H243.813L242.894 123.875H221.658L224.637 122.71ZM231.23 118.05H246.508L246.064 119.215H230.089L231.23 118.05ZM234.907 113.39H248.821L248.378 114.555H233.988L234.907 113.39ZM236.935 108.73H250.406L249.962 109.895H236.492L236.935 108.73ZM238.552 104.07H251.325L250.882 105.235H238.108L238.552 104.07ZM239.217 99.41H251.769L251.547 100.575H238.996L239.217 99.41ZM239.471 94.75H251.801V95.915H239.471V94.75ZM239.693 62.1303H251.801V63.2953H239.693V62.1303ZM239.693 66.7903H251.801V67.9553H239.693V66.7903ZM239.693 71.4502H251.801V72.6152H239.693V71.4502ZM239.693 76.1102H251.801V77.2752H239.693V76.1102ZM239.693 80.7701H251.801V81.9351H239.693V80.7701ZM239.693 85.4301H251.801V86.5951H239.693V85.4301ZM239.693 90.0901H251.801V91.2551H239.693V90.0901Z" fill="white"/>
<path d="M286.482 6.22729H321.855L375.041 89.1678V6.22729H408.354V146.026H373.425L320.017 63.0851V146.026H286.482V6.22729V6.22729ZM311.586 139.489V40.918H315.009L378.686 139.489H399.922V12.7318H383.504V110.138H379.383L316.625 12.7318H294.945V137.159L311.586 139.489ZM300.841 15.2883H315.231L316.15 16.4533H301.538L300.841 15.2883ZM304.042 19.9482H318.178L319.098 21.1132H304.708L304.042 19.9482ZM307.021 24.6082H321.158L322.077 25.7732H307.687L307.021 24.6082ZM310.223 29.2681H324.137L325.056 30.4331H310.92L310.223 29.2681ZM313.17 33.9604H327.085L328.004 35.1254H313.868L313.17 33.9604ZM316.372 38.6204H330.064L330.984 39.7854H317.069L316.372 38.6204ZM319.351 43.2803H333.266L334.185 44.4453H320.049L319.351 43.2803ZM322.299 47.9403H336.214L337.133 49.1053H322.996L322.299 47.9403ZM325.5 52.6002H339.193L340.112 53.7652H326.198L325.5 52.6002ZM328.48 57.2602H342.172L343.092 58.4251H329.177L328.48 57.2602ZM331.427 61.9201H345.12L346.039 63.0851H332.125L331.427 61.9201ZM334.407 66.58H348.321L349.241 67.745H335.104L334.407 66.58ZM337.386 71.24H351.301L352.22 72.405H338.084L337.386 71.24ZM340.334 75.8999H354.249L355.168 77.0649H341.031L340.334 75.8999ZM343.535 80.5599H357.228L358.147 81.7249H344.233L343.535 80.5599ZM346.515 85.2198H360.207L361.127 86.3848H347.212L346.515 85.2198ZM349.462 89.8798H363.155L364.074 91.0447H350.16L349.462 89.8798ZM352.442 94.5397H366.356L367.276 95.7047H353.139L352.442 94.5397ZM369.336 99.1997L370.255 100.365H356.119L355.421 99.1997H369.336ZM372.284 103.86L373.203 105.025H359.288L358.591 103.86H372.284ZM375.263 108.52L376.182 109.685H362.268L361.57 108.52H375.263ZM378.686 113.18L379.605 114.345H365.215L364.518 113.18H378.686ZM381.887 117.839L383.029 119.004H368.195L367.497 117.839H381.887ZM385.311 122.499L386.452 123.664H371.174L370.477 122.499H385.311ZM388.734 127.159L389.653 128.324H374.122L373.425 127.159H388.734ZM392.157 131.819L393.298 132.984H377.323L376.626 131.819H392.157ZM395.327 135.994L396.468 137.159H379.796L379.13 135.994H395.327Z" fill="white"/>
<path d="M432.354 6.22729H465.888V146.026H432.354V6.22729ZM457.457 139.489V19.4952L440.785 12.7318V139.489H457.457V139.489ZM443.067 19.4952H455.174V20.6602H443.067V19.4952ZM443.067 24.1551H455.174V25.3201H443.067V24.1551ZM443.067 28.8151H455.174V29.9801H443.067V28.8151ZM443.067 33.475H455.174V34.64H443.067V33.475ZM443.067 38.135H455.174V39.3H443.067V38.135ZM443.067 42.7949H455.174V43.9599H443.067V42.7949ZM443.067 47.4548H455.174V48.6198H443.067V47.4548ZM443.067 52.1148H455.174V53.2798H443.067V52.1148ZM443.067 56.7747H455.174V57.9397H443.067V56.7747ZM443.067 61.4347H455.174V62.5997H443.067V61.4347ZM443.067 66.0946H455.174V67.2596H443.067V66.0946ZM443.067 70.7546H455.174V71.9196H443.067V70.7546ZM443.067 75.4145H455.174V76.5795H443.067V75.4145ZM443.067 80.0745H455.174V81.2394H443.067V80.0745Z" fill="white"/>
<path d="M563.613 1.56714C606.751 1.56714 637.338 35.1253 637.338 76.353C637.338 95.9313 630.491 113.406 618.859 126.674L641.902 148.356H599.207L594.865 144.149C585.515 148.356 575.023 150.686 563.613 150.686C520.474 150.686 489.888 117.613 489.888 76.353C489.888 35.0929 520.474 1.56714 563.613 1.56714ZM563.613 144.149C579.588 144.149 588.938 140.201 596.006 135.994L603.772 143.21H627.037L608.78 126.189C621.775 111.497 628.875 94.5074 628.875 76.3206C628.875 70.9488 628.431 65.8357 627.29 60.9493C620.887 30.8861 596.482 8.97774 563.613 8.97774C530.744 8.97774 506.084 30.8861 499.713 60.9493C498.572 65.8357 498.351 70.9811 498.351 76.3206C498.351 113.859 525.514 144.149 563.613 144.149ZM500.855 70.3015H512.962L512.741 71.4665H500.633L500.855 70.3015ZM500.633 74.9615H512.741V76.1264H500.633V74.9615ZM500.633 79.6214H512.741L512.962 80.7864H500.855L500.633 79.6214ZM501.552 65.6416H513.882L513.438 66.8066H501.108L501.552 65.6416ZM501.076 84.2814H513.184L513.406 85.4464H501.298L501.076 84.2814ZM501.552 88.9413H514.104L514.547 90.1063H501.996L501.552 88.9413ZM502.218 60.9816H514.769L514.325 62.1466H501.996L502.218 60.9816ZM502.693 93.6013H515.245L515.688 94.7663H502.915L502.693 93.6013ZM504.056 98.2613H517.051L517.495 99.4263H504.246L504.056 98.2613ZM505.641 102.921H519.333L520.031 104.086H506.338L505.641 102.921ZM507.701 107.581H522.313L523.454 108.746H508.398L507.701 107.581ZM510.458 112.241H526.433L527.574 113.406H511.156L510.458 112.241ZM531.219 116.901L532.582 118.066H514.325L513.406 116.901H531.219ZM517.305 60.9816C523.232 41.1768 540.126 26.2585 563.644 26.2585C587.163 26.2585 604.057 41.1768 609.984 60.9816C611.347 65.8681 612.266 71.0135 612.266 76.353C612.266 91.0448 606.339 105.478 596.513 114.345L576.893 95.7047H554.991L582.377 122.726C579.873 123.665 573.026 124.603 563.676 124.603C534.452 124.603 515.054 103.18 515.054 76.353C515.023 70.9811 515.91 65.8681 517.305 60.9816ZM538.51 121.561L541.013 122.726H518.414L517.273 121.561H538.51ZM551.061 126.221L563.613 127.159L577.305 126.221H605.166L606.307 127.386H523.454L522.091 126.221H551.061ZM563.613 118.519C565.198 118.519 566.814 118.519 568.399 118.293L549.223 90.1063H580.475L594.865 103.86C600.57 96.4167 603.772 86.8379 603.772 76.353C603.772 52.8267 587.797 33.7014 563.613 33.7014C539.429 33.7014 523.454 52.7943 523.454 76.353C523.454 99.6528 539.429 118.519 563.613 118.519ZM609.952 130.881L611.093 132.046H529.856L528.272 130.881H609.952ZM591.22 135.541L588.716 136.706H538.731L536.006 135.541H591.22ZM574.58 140.201L563.613 141.592L549.223 140.201H574.58ZM575.943 98.2613L577.084 99.4263H561.806L560.665 98.2613H575.943ZM580.729 102.921L581.87 104.086H566.592L565.229 102.921H580.729ZM585.768 107.581L586.909 108.746H571.378L570.015 107.581H585.768ZM590.776 112.241L591.917 113.406H576.164L574.801 112.241H590.776ZM612.932 116.901L612.013 118.066H580.982L579.619 116.901H612.932ZM609.509 121.561L608.589 122.726H585.768L584.405 121.561H609.509ZM614.96 135.541L614.738 135.314L616.577 136.706H600.38L599.017 135.541H614.96ZM601.521 112.241H615.911L614.992 113.406H600.38L601.521 112.241ZM604.944 107.581H618.415L617.718 108.746H604.025L604.944 107.581ZM620 139.974L619.778 139.748L621.616 141.139H605.42L604.057 139.974H620ZM607.67 102.921H620.919L620.222 104.086H606.973L607.67 102.921ZM609.952 98.2613H622.726L622.029 99.4263H609.477L609.952 98.2613ZM611.537 93.6013H624.089L623.645 94.7663H611.315L611.537 93.6013ZM612.234 60.9816H624.786L625.23 62.1466H612.678L612.234 60.9816ZM612.932 88.9413H625.262L625.04 90.1063H612.71L612.932 88.9413ZM613.376 65.6416H625.705L625.927 66.8066H613.819L613.376 65.6416ZM613.819 84.2814H626.149L625.705 85.4464H613.597L613.819 84.2814ZM614.073 70.3015H626.181L626.403 71.4665H614.295L614.073 70.3015ZM614.517 79.6214H626.625L626.403 80.7864H614.295L614.517 79.6214ZM614.517 74.9615H626.625V76.1264H614.517V74.9615Z" fill="white"/>
<path d="M682.32 60.043C692.146 60.043 698.738 66.0945 698.738 76.1263C698.738 86.1582 692.114 92.2097 682.32 92.2097C672.494 92.2097 665.901 86.1582 665.901 76.1263C665.901 66.0945 672.494 60.043 682.32 60.043Z" fill="#E30613"/>
</svg>
