<svg width="370" height="18" viewBox="0 0 370 18" fill="none" xmlns="http://www.w3.org/2000/svg">
<rect y="0.262207" width="32" height="17" rx="8.5" fill="url(#paint0_linear_3_6008)"/>
<path d="M17.1389 9.073H24.6323C25.8219 9.073 26.7863 10.0374 26.7863 11.227C26.7863 12.4167 25.8219 13.3811 24.6323 13.3811H17.1389V9.073Z" fill="white"/>
<path d="M17.1389 4.16064H24.6358C25.8235 4.16064 26.7863 5.12345 26.7863 6.31113C26.7863 7.49881 25.8235 8.46161 24.6358 8.46161H17.1389V4.16064Z" fill="white"/>
<g clip-path="url(#clip0_3_6008)">
<path d="M10.8632 9.07062V8.45927H16.5095C16.3424 5.88267 14.077 3.84229 11.307 3.84229H10.4193C7.54044 3.84229 5.20679 6.04649 5.20679 8.76525C5.20679 11.484 7.54044 13.6882 10.4193 13.6882H11.307C14.077 13.6882 16.342 11.6474 16.5093 9.07123L10.8632 9.07062Z" fill="white"/>
</g>
<rect x="42" y="0.262207" width="32" height="17" rx="8.5" fill="#1434CB"/>
<path d="M56.5606 12.236H54.7426L55.8797 5.18262H57.6977L56.5606 12.236Z" fill="white"/>
<path d="M63.1513 5.35498C62.7927 5.21226 62.2239 5.05469 61.5206 5.05469C59.7252 5.05469 58.4609 6.01509 58.4532 7.38819C58.4382 8.40125 59.3584 8.96393 60.0465 9.30172C60.7499 9.64689 60.989 9.87218 60.989 10.1799C60.9819 10.6524 60.4207 10.8702 59.8972 10.8702C59.1714 10.8702 58.7824 10.7579 58.1914 10.495L57.952 10.3823L57.6976 11.9656C58.124 12.1605 58.9096 12.3334 59.7252 12.341C61.6329 12.341 62.8748 11.3955 62.8895 9.93222C62.8968 9.12929 62.4109 8.51405 61.3635 8.01131C60.7276 7.68858 60.3381 7.47096 60.3381 7.14076C60.3456 6.84057 60.6675 6.5331 61.3853 6.5331C61.9764 6.51804 62.4106 6.66055 62.7396 6.80317L62.9041 6.87806L63.1513 5.35498Z" fill="white"/>
<path d="M65.5677 9.73722C65.7174 9.33202 66.2935 7.76375 66.2935 7.76375C66.286 7.77881 66.443 7.35106 66.5327 7.08847L66.6598 7.69623C66.6598 7.69623 67.0041 9.38458 67.0789 9.73722C66.7947 9.73722 65.9268 9.73722 65.5677 9.73722ZM67.8119 5.18262H66.4056C65.9719 5.18262 65.6424 5.31007 65.4553 5.76784L62.7548 12.2359H64.6625C64.6625 12.2359 64.9765 11.3653 65.044 11.1778C65.2533 11.1778 67.1091 11.1778 67.3783 11.1778C67.4305 11.4255 67.5952 12.2359 67.5952 12.2359H69.2786L67.8119 5.18262Z" fill="white"/>
<path d="M53.2238 5.18262L51.4433 9.99233L51.2488 9.01687C50.9196 7.8913 49.8872 6.66841 48.7352 6.06035L50.366 12.2285H52.2886L55.1463 5.18262H53.2238Z" fill="white"/>
<path d="M49.7902 5.18262H46.8651L46.8351 5.32513C49.1169 5.91045 50.6281 7.32134 51.2489 9.01717L50.6131 5.77552C50.5084 5.32503 50.1867 5.19748 49.7902 5.18262Z" fill="white"/>
<rect x="84" y="0.262207" width="31" height="17" rx="8.5" fill="#FAFAFA"/>
<path d="M94.3085 14.6972V13.906C94.3085 13.6033 94.1129 13.4051 93.7771 13.4051C93.6092 13.4051 93.4266 13.4574 93.3011 13.6295C93.2033 13.485 93.0631 13.4051 92.8529 13.4051C92.7127 13.4051 92.5725 13.4451 92.4617 13.5895V13.4313H92.1683V14.6972H92.4617V13.9982C92.4617 13.7739 92.5872 13.6679 92.7828 13.6679C92.9784 13.6679 93.0762 13.7862 93.0762 13.9982V14.6972H93.3696V13.9982C93.3696 13.7739 93.5098 13.6679 93.6907 13.6679C93.8863 13.6679 93.9841 13.7862 93.9841 13.9982V14.6972H94.3085ZM98.6606 13.4313H98.1846V13.0487H97.8912V13.4313H97.6255V13.6817H97.8912V14.2624C97.8912 14.5528 98.0167 14.7233 98.3525 14.7233C98.478 14.7233 98.6182 14.6834 98.716 14.6311L98.6312 14.393C98.5465 14.4453 98.4487 14.4591 98.3786 14.4591C98.2384 14.4591 98.183 14.3792 98.183 14.2486V13.6817H98.6589V13.4313H98.6606ZM101.151 13.4036C100.983 13.4036 100.871 13.4835 100.801 13.588V13.4297H100.507V14.6957H100.801V13.9828C100.801 13.7723 100.899 13.6525 101.081 13.6525C101.137 13.6525 101.207 13.6663 101.264 13.6786L101.348 13.4144C101.29 13.4036 101.207 13.4036 101.151 13.4036ZM97.3875 13.5357C97.2473 13.4436 97.0517 13.4036 96.8415 13.4036C96.5057 13.4036 96.2824 13.5619 96.2824 13.8123C96.2824 14.0228 96.4503 14.1426 96.7437 14.181L96.8839 14.1948C97.0371 14.2209 97.1218 14.2609 97.1218 14.327C97.1218 14.4191 97.0094 14.4852 96.8138 14.4852C96.6182 14.4852 96.4633 14.4191 96.3655 14.3531L96.2253 14.5635C96.3786 14.6696 96.5888 14.7218 96.7991 14.7218C97.1903 14.7218 97.4152 14.5497 97.4152 14.3131C97.4152 14.0888 97.2327 13.9705 96.9539 13.9306L96.8138 13.9167C96.6883 13.9029 96.5905 13.8768 96.5905 13.7985C96.5905 13.7063 96.6883 13.654 96.8431 13.654C97.011 13.654 97.1789 13.7201 97.2636 13.76L97.3875 13.5357ZM105.194 13.4036C105.026 13.4036 104.913 13.4835 104.843 13.588V13.4297H104.55V14.6957H104.843V13.9828C104.843 13.7723 104.941 13.6525 105.123 13.6525C105.179 13.6525 105.249 13.6663 105.306 13.6786L105.391 13.4174C105.334 13.4036 105.251 13.4036 105.194 13.4036ZM101.445 14.0642C101.445 14.4468 101.725 14.7233 102.159 14.7233C102.354 14.7233 102.494 14.6834 102.634 14.5789L102.494 14.3546C102.382 14.4345 102.271 14.4729 102.144 14.4729C101.906 14.4729 101.738 14.3147 101.738 14.0642C101.738 13.8261 101.906 13.6679 102.144 13.6556C102.269 13.6556 102.382 13.6955 102.494 13.7739L102.634 13.5496C102.494 13.4436 102.354 13.4051 102.159 13.4051C101.725 13.4036 101.445 13.6817 101.445 14.0642ZM104.159 14.0642V13.4313H103.865V13.5895C103.767 13.4712 103.627 13.4051 103.445 13.4051C103.066 13.4051 102.773 13.6817 102.773 14.0642C102.773 14.4468 103.066 14.7233 103.445 14.7233C103.64 14.7233 103.78 14.6573 103.865 14.539V14.6972H104.159V14.0642ZM103.081 14.0642C103.081 13.8399 103.234 13.6556 103.487 13.6556C103.725 13.6556 103.893 13.8276 103.893 14.0642C103.893 14.2885 103.725 14.4729 103.487 14.4729C103.236 14.4591 103.081 14.287 103.081 14.0642ZM99.5701 13.4036C99.1789 13.4036 98.8985 13.6679 98.8985 14.0627C98.8985 14.4591 99.1789 14.7218 99.5848 14.7218C99.7804 14.7218 99.976 14.6696 100.131 14.5497L99.9906 14.3515C99.8782 14.4314 99.738 14.4837 99.5994 14.4837C99.4169 14.4837 99.2359 14.4038 99.1936 14.181H100.186C100.186 14.1411 100.186 14.1149 100.186 14.075C100.199 13.6679 99.9466 13.4036 99.5701 13.4036ZM99.5701 13.6417C99.7527 13.6417 99.8782 13.7478 99.9059 13.9444H99.2066C99.2343 13.7739 99.3598 13.6417 99.5701 13.6417ZM106.859 14.0642V12.9304H106.566V13.5895C106.468 13.4712 106.328 13.4051 106.146 13.4051C105.767 13.4051 105.474 13.6817 105.474 14.0642C105.474 14.4468 105.767 14.7233 106.146 14.7233C106.341 14.7233 106.481 14.6573 106.566 14.539V14.6972H106.859V14.0642ZM105.782 14.0642C105.782 13.8399 105.935 13.6556 106.188 13.6556C106.426 13.6556 106.594 13.8276 106.594 14.0642C106.594 14.2885 106.426 14.4729 106.188 14.4729C105.935 14.4591 105.782 14.287 105.782 14.0642ZM95.9596 14.0642V13.4313H95.6662V13.5895C95.5684 13.4712 95.4283 13.4051 95.2457 13.4051C94.8675 13.4051 94.5741 13.6817 94.5741 14.0642C94.5741 14.4468 94.8675 14.7233 95.2457 14.7233C95.4413 14.7233 95.5815 14.6573 95.6662 14.539V14.6972H95.9596V14.0642ZM94.8692 14.0642C94.8692 13.8399 95.0224 13.6556 95.275 13.6556C95.513 13.6556 95.6809 13.8276 95.6809 14.0642C95.6809 14.2885 95.513 14.4729 95.275 14.4729C95.0224 14.4591 94.8692 14.287 94.8692 14.0642Z" fill="#0C0C0D"/>
<path d="M101.697 3.81689H97.2897V11.2804H101.697V3.81689Z" fill="#FF5A00"/>
<path d="M97.5831 7.54856C97.5831 6.03219 98.3394 4.68636 99.5 3.81679C98.6459 3.18382 97.5684 2.80127 96.3932 2.80127C93.6092 2.80127 91.3565 4.92449 91.3565 7.54856C91.3565 10.1726 93.6092 12.2958 96.3932 12.2958C97.5684 12.2958 98.6459 11.9133 99.5 11.2803C98.3378 10.423 97.5831 9.06492 97.5831 7.54856Z" fill="#EB001B"/>
<path d="M107.643 7.54856C107.643 10.1726 105.391 12.2958 102.607 12.2958C101.432 12.2958 100.354 11.9133 99.5 11.2803C100.675 10.4092 101.417 9.06492 101.417 7.54856C101.417 6.03219 100.661 4.68636 99.5 3.81679C100.352 3.18382 101.43 2.80127 102.605 2.80127C105.391 2.80127 107.643 4.93832 107.643 7.54856Z" fill="#F79E1B"/>
<rect x="125" y="0.262207" width="32" height="17" rx="8.5" fill="#FAFAFA"/>
<path d="M143.3 11.1356H138.753V3.47754H143.3V11.1356Z" fill="#7375CF"/>
<path d="M139.047 7.30654C139.047 5.75443 139.82 4.36778 141.031 3.47749C140.148 2.82356 139.03 2.4375 137.82 2.4375C134.954 2.4375 132.627 4.6199 132.627 7.30654C132.627 9.99317 134.954 12.1756 137.82 12.1756C139.03 12.1756 140.148 11.7895 141.031 11.1356C139.82 10.2453 139.047 8.85864 139.047 7.30654Z" fill="#EB001B"/>
<path d="M149.435 7.30654C149.435 9.99317 147.107 12.1756 144.241 12.1756C143.031 12.1756 141.913 11.7895 141.031 11.1356C142.241 10.2453 143.014 8.85864 143.014 7.30654C143.014 5.75443 142.241 4.36778 141.031 3.47749C141.913 2.82356 143.031 2.4375 144.241 2.4375C147.107 2.4375 149.435 4.6199 149.435 7.30654Z" fill="#00A2E5"/>
<path d="M144.829 13.3022C144.888 13.3022 144.98 13.3101 145.039 13.3337L144.947 13.6016C144.88 13.5779 144.821 13.5701 144.762 13.5701C144.569 13.5701 144.468 13.6882 144.468 13.901V14.6258H144.165V13.3337H144.459V13.4913C144.543 13.3731 144.661 13.3022 144.829 13.3022ZM143.72 13.5858H143.232V14.1688C143.232 14.2949 143.283 14.3816 143.434 14.3816C143.51 14.3816 143.611 14.3579 143.703 14.3107L143.787 14.5549C143.695 14.6179 143.543 14.6573 143.409 14.6573C143.056 14.6573 142.93 14.4761 142.93 14.1767V13.5858H142.653V13.3258H142.93V12.9319H143.232V13.3258H143.72V13.5858ZM139.879 13.8616C139.913 13.6725 140.03 13.5464 140.249 13.5464C140.442 13.5464 140.568 13.6567 140.602 13.8616H139.879ZM140.913 13.9798C140.913 13.5779 140.644 13.3022 140.257 13.3022C139.854 13.3022 139.568 13.5779 139.568 13.9798C139.568 14.3894 139.862 14.6573 140.274 14.6573C140.484 14.6573 140.669 14.61 140.837 14.4761L140.686 14.2713C140.568 14.3579 140.425 14.4052 140.283 14.4052C140.089 14.4052 139.913 14.3185 139.871 14.0901H140.896C140.904 14.0507 140.913 14.0191 140.913 13.9798ZM142.232 13.6646C142.148 13.6173 141.98 13.5543 141.804 13.5543C141.636 13.5543 141.543 13.6095 141.543 13.704C141.543 13.7907 141.644 13.8143 141.779 13.8301L141.921 13.8458C142.224 13.8852 142.4 14.0034 142.4 14.2319C142.4 14.4761 142.173 14.6573 141.77 14.6573C141.543 14.6573 141.333 14.6022 141.173 14.4919L141.316 14.2713C141.417 14.3422 141.568 14.4052 141.779 14.4052C141.98 14.4052 142.089 14.3501 142.089 14.2476C142.089 14.1767 142.014 14.1373 141.846 14.1137L141.703 14.0979C141.392 14.0585 141.224 13.9246 141.224 13.7198C141.224 13.4598 141.451 13.3022 141.795 13.3022C142.014 13.3022 142.216 13.3495 142.358 13.4361L142.232 13.6646ZM145.93 13.5622C145.871 13.5622 145.812 13.5701 145.762 13.5937C145.712 13.6173 145.661 13.641 145.628 13.6804C145.594 13.7198 145.56 13.7591 145.535 13.8143C145.51 13.8616 145.501 13.9246 145.501 13.9798C145.501 14.0428 145.51 14.0979 145.535 14.1452C145.56 14.1925 145.585 14.2398 145.628 14.2791C145.67 14.3185 145.712 14.3422 145.762 14.3658C145.812 14.3894 145.871 14.3973 145.93 14.3973C145.989 14.3973 146.048 14.3894 146.098 14.3658C146.149 14.3422 146.199 14.3185 146.233 14.2791C146.275 14.2398 146.3 14.2004 146.325 14.1452C146.35 14.0979 146.359 14.0349 146.359 13.9798C146.359 13.9167 146.35 13.8616 146.325 13.8143C146.3 13.767 146.275 13.7198 146.233 13.6804C146.191 13.641 146.149 13.6173 146.098 13.5937C146.048 13.5779 145.989 13.5622 145.93 13.5622ZM145.93 13.3022C146.039 13.3022 146.14 13.3179 146.224 13.3573C146.317 13.3889 146.392 13.4361 146.46 13.4992C146.527 13.5622 146.577 13.6331 146.619 13.7119C146.653 13.7985 146.678 13.8852 146.678 13.9798C146.678 14.0743 146.661 14.1688 146.619 14.2476C146.586 14.3343 146.527 14.4052 146.46 14.4604C146.392 14.5234 146.317 14.5707 146.224 14.6022C146.132 14.6337 146.031 14.6573 145.93 14.6573C145.821 14.6573 145.72 14.6416 145.636 14.6022C145.543 14.5707 145.468 14.5234 145.401 14.4604C145.333 14.3973 145.283 14.3264 145.241 14.2476C145.207 14.161 145.182 14.0743 145.182 13.9798C145.182 13.8852 145.199 13.7907 145.241 13.7119C145.275 13.6252 145.333 13.5543 145.401 13.4992C145.468 13.4361 145.543 13.3889 145.636 13.3573C145.72 13.3179 145.821 13.3022 145.93 13.3022ZM138.131 13.9798C138.131 13.7513 138.291 13.5622 138.551 13.5622C138.803 13.5622 138.963 13.7434 138.963 13.9798C138.963 14.2161 138.795 14.3894 138.551 14.3894C138.291 14.3894 138.131 14.2082 138.131 13.9798ZM139.249 13.9798V13.3337H138.946V13.4913C138.854 13.3731 138.711 13.3022 138.509 13.3022C138.123 13.3022 137.82 13.5858 137.82 13.9798C137.82 14.3737 138.123 14.6573 138.509 14.6573C138.703 14.6573 138.846 14.5864 138.946 14.4682V14.6258H139.249V13.9798ZM137.56 14.6258V13.8143C137.56 13.507 137.35 13.3022 137.013 13.3022C136.837 13.3022 136.652 13.3495 136.526 13.5307C136.434 13.3889 136.282 13.3022 136.072 13.3022C135.929 13.3022 135.778 13.3416 135.669 13.4913V13.3337H135.366V14.6258H135.669V13.9088C135.669 13.6882 135.803 13.5622 136.005 13.5622C136.207 13.5622 136.308 13.6804 136.308 13.901V14.6179H136.61V13.901C136.61 13.6804 136.753 13.5543 136.946 13.5543C137.148 13.5543 137.249 13.6725 137.249 13.8931V14.61H137.56V14.6258Z" fill="#0C0C0D"/>
<rect x="167" y="0.262207" width="32" height="17" rx="8.5" fill="#FAFAFA"/>
<path d="M180.83 13.9557L181.035 12.7226L180.577 12.7126H178.391L179.91 3.61316C179.915 3.58569 179.93 3.56007 179.953 3.54188C179.975 3.52369 180.004 3.51367 180.034 3.51367H183.72C184.944 3.51367 185.789 3.75421 186.23 4.22899C186.437 4.45171 186.568 4.68446 186.632 4.94059C186.699 5.20935 186.7 5.53044 186.635 5.92207L186.63 5.95065V6.20159L186.837 6.31221C187.011 6.39944 187.149 6.49929 187.255 6.61363C187.432 6.80406 187.547 7.04608 187.595 7.33303C187.645 7.62814 187.628 7.9793 187.547 8.37686C187.452 8.83419 187.3 9.2325 187.094 9.55842C186.904 9.85872 186.663 10.1078 186.377 10.3008C186.103 10.4842 185.778 10.6234 185.41 10.7125C185.054 10.8001 184.648 10.8443 184.203 10.8443H183.916C183.711 10.8443 183.512 10.9141 183.355 11.0392C183.198 11.1669 183.095 11.3413 183.063 11.5321L183.041 11.6431L182.678 13.8165L182.661 13.8963C182.657 13.9216 182.65 13.9342 182.639 13.9427C182.629 13.9505 182.615 13.9557 182.601 13.9557H180.83Z" fill="#253B80"/>
<path d="M187.033 5.97949C187.022 6.04594 187.009 6.11387 186.995 6.18366C186.509 8.5412 184.845 9.35563 182.721 9.35563H181.639C181.379 9.35563 181.16 9.53381 181.12 9.77583L180.566 13.0929L180.409 14.0332C180.383 14.1921 180.513 14.3354 180.683 14.3354H182.601C182.828 14.3354 183.021 14.1795 183.057 13.9679L183.076 13.8758L183.437 11.7109L183.46 11.5922C183.496 11.3798 183.689 11.2239 183.916 11.2239H184.203C186.062 11.2239 187.517 10.5112 187.942 8.44877C188.12 7.58719 188.028 6.86779 187.558 6.36184C187.415 6.20927 187.239 6.08269 187.033 5.97949Z" fill="#179BD7"/>
<path d="M186.524 5.78811C186.45 5.76769 186.373 5.74913 186.294 5.73243C186.215 5.71609 186.134 5.70162 186.051 5.68899C185.759 5.64445 185.44 5.62329 185.098 5.62329H182.208C182.137 5.62329 182.069 5.63851 182.009 5.66598C181.875 5.72649 181.776 5.84564 181.752 5.99153L181.138 9.66871L181.12 9.77599C181.16 9.53396 181.379 9.35578 181.639 9.35578H182.721C184.845 9.35578 186.509 8.54098 186.995 6.18381C187.009 6.11403 187.022 6.0461 187.033 5.97965C186.91 5.91803 186.776 5.86532 186.633 5.8204C186.597 5.80927 186.561 5.7985 186.524 5.78811Z" fill="#222D65"/>
<path d="M181.752 5.99147C181.776 5.84559 181.875 5.72643 182.009 5.66629C182.07 5.63883 182.137 5.62361 182.208 5.62361H185.098C185.44 5.62361 185.759 5.64476 186.051 5.68931C186.134 5.70193 186.215 5.71641 186.294 5.73274C186.373 5.74944 186.45 5.76801 186.524 5.78842C186.561 5.79882 186.597 5.80958 186.633 5.82035C186.777 5.86526 186.91 5.91834 187.033 5.97959C187.178 5.10837 187.032 4.51518 186.533 3.97804C185.983 3.38671 184.991 3.13354 183.721 3.13354H180.034C179.775 3.13354 179.553 3.31172 179.513 3.55412L177.978 12.7471C177.947 12.929 178.096 13.093 178.29 13.093H180.566L181.138 9.66865L181.752 5.99147Z" fill="#253B80"/>
<rect x="209" y="0.262207" width="32" height="17" rx="8.5" fill="#FAFAFA"/>
<path d="M224.952 12.9696H216.718C216.544 12.9696 216.544 12.9696 216.544 12.8034C216.544 12.5264 216.548 12.2497 216.542 11.973C216.54 11.8774 216.576 11.8533 216.671 11.8543C217.161 11.8579 217.648 11.856 218.136 11.856H233.19C233.39 11.856 233.372 11.8414 233.373 12.0314C233.373 12.3021 233.373 12.5727 233.373 12.8433C233.373 12.9691 233.373 12.9696 233.226 12.9696H224.952Z" fill="#E8494E"/>
<path d="M228.97 9.47715H227.951C227.949 9.43895 227.946 9.40415 227.946 9.36837C227.946 8.71642 227.946 8.06472 227.945 7.41277C227.946 7.3115 227.938 7.21029 227.921 7.11028C227.845 6.70314 227.572 6.61967 227.243 6.64547C226.836 6.6771 226.635 6.94699 226.61 7.29133C226.585 7.64031 226.596 7.99171 226.594 8.3419C226.592 8.68016 226.594 9.01843 226.594 9.35669V9.4735H225.576V9.3691C225.576 8.70499 225.58 8.04063 225.573 7.37651C225.574 7.24181 225.552 7.10785 225.509 6.97935C225.411 6.69925 225.192 6.63525 224.939 6.64522C224.825 6.64874 224.714 6.67166 224.609 6.71288C224.382 6.80584 224.284 6.99566 224.245 7.21419C224.229 7.3052 224.222 7.39726 224.223 7.48943C224.221 8.11363 224.223 8.73784 224.223 9.36205V9.47569H223.214V5.90664H224.145V6.30647C224.408 5.9227 224.803 5.8166 225.244 5.8149C225.69 5.81319 226.074 5.94825 226.322 6.29528C226.506 6.17969 226.669 6.04511 226.857 5.96505C227.361 5.75162 227.876 5.73605 228.365 6.00447C228.699 6.18723 228.859 6.49483 228.926 6.84186C228.956 7.01144 228.97 7.18318 228.969 7.35509C228.973 8.02237 228.97 8.68966 228.97 9.35694V9.47715Z" fill="#004261"/>
<path d="M233.132 9.4808C232.838 9.4808 232.558 9.48202 232.279 9.47788C232.261 9.47788 232.228 9.43675 232.228 9.41339C232.222 9.31605 232.225 9.2187 232.225 9.09922C232.158 9.16614 232.11 9.22089 232.054 9.26957C231.858 9.43675 231.618 9.50611 231.363 9.54091C231.028 9.58715 230.694 9.57765 230.373 9.4662C230.084 9.36618 229.887 9.17198 229.78 8.90332C229.651 8.58769 229.653 8.23753 229.786 7.92332C229.893 7.66269 230.115 7.51278 230.384 7.41592C230.705 7.29984 231.042 7.27964 231.381 7.27259C231.628 7.26748 231.875 7.27259 232.121 7.27259C232.194 6.97715 232.055 6.70265 231.758 6.64522C231.516 6.59849 231.273 6.58559 231.042 6.68975C230.91 6.74889 230.835 6.85329 230.793 6.98178C230.784 7.00806 230.746 7.04359 230.721 7.04383C230.419 7.04773 230.116 7.04578 229.813 7.04505C229.8 7.0426 229.788 7.03859 229.776 7.03313C229.797 6.82288 229.871 6.62045 229.992 6.4425C230.267 6.03366 230.687 5.86745 231.175 5.82924C231.553 5.79955 231.929 5.80929 232.292 5.9334C232.77 6.09669 233.035 6.42206 233.112 6.88882C233.127 6.99524 233.134 7.10264 233.132 7.21005C233.134 7.92648 233.134 8.64284 233.132 9.35912V9.4808ZM232.129 8.00363C231.883 8.00363 231.637 7.99511 231.391 8.00679C231.227 8.01731 231.064 8.04116 230.904 8.0781C230.838 8.09436 230.78 8.13125 230.739 8.18274C230.576 8.40176 230.683 8.71204 230.956 8.77361C231.125 8.81181 231.309 8.80889 231.485 8.79794C231.972 8.76898 232.153 8.44021 232.129 8.00363Z" fill="#004261"/>
<path d="M219.239 7.27075C219.225 7.1464 219.226 7.03178 219.197 6.92421C219.18 6.86565 219.149 6.81195 219.104 6.76815C219.06 6.72435 219.005 6.69189 218.944 6.6738C218.691 6.58984 218.432 6.5806 218.179 6.66796C218.005 6.72856 217.905 6.85802 217.872 7.03835H216.871C216.94 6.42996 217.354 5.99192 217.991 5.87024C218.442 5.78312 218.893 5.78823 219.339 5.91745C219.837 6.062 220.201 6.46549 220.213 6.95999C220.233 7.7874 220.221 8.61359 220.222 9.44027C220.221 9.45188 220.218 9.46331 220.214 9.47434H219.325V9.0874C219.274 9.14289 219.24 9.18085 219.204 9.21662C219.019 9.4006 218.784 9.48918 218.525 9.53104C218.221 9.57971 217.917 9.58312 217.616 9.51157C217.156 9.40255 216.887 9.1166 216.811 8.68416C216.78 8.49623 216.782 8.30496 216.817 8.11763C216.878 7.75795 217.126 7.53552 217.481 7.4119C217.797 7.30166 218.127 7.27878 218.46 7.27148C218.709 7.26637 218.96 7.27075 219.239 7.27075ZM219.215 8.01031C219.207 8.00659 219.199 8.00404 219.19 8.00277C218.958 8.00277 218.726 7.99473 218.497 8.00642C218.329 8.01584 218.162 8.03979 217.998 8.07796C217.925 8.10003 217.862 8.14534 217.82 8.20621C217.787 8.25545 217.765 8.31134 217.758 8.36954C217.751 8.42774 217.759 8.48669 217.779 8.54184C217.8 8.59699 217.834 8.64685 217.879 8.68756C217.924 8.72828 217.978 8.75876 218.037 8.77664C218.221 8.83577 218.408 8.81509 218.597 8.79951C219.106 8.75717 219.263 8.35222 219.215 8.01031Z" fill="#004261"/>
<path d="M222.534 8.66651V9.47494C222.305 9.50799 222.071 9.50544 221.843 9.4674C221.375 9.38587 221.183 9.12013 221.14 8.6945C221.127 8.56941 221.124 8.44311 221.123 8.3173C221.122 7.03562 221.122 5.75395 221.123 4.47228V4.35474H222.133C222.135 4.39465 222.139 4.43626 222.139 4.47641C222.139 5.743 222.139 7.00958 222.139 8.27617V8.32241C222.139 8.61443 222.189 8.66116 222.503 8.65921C222.513 8.66092 222.524 8.66336 222.534 8.66651Z" fill="#004261"/>
<rect x="251" y="0.262207" width="33" height="17" rx="8.5" fill="#FAFAFA"/>
<mask id="mask0_3_6008" style="mask-type:alpha" maskUnits="userSpaceOnUse" x="262" y="2" width="9" height="14">
<path d="M262.104 2.37085H270.745V15.1535H262.104V2.37085Z" fill="white"/>
</mask>
<g mask="url(#mask0_3_6008)">
<path fill-rule="evenodd" clip-rule="evenodd" d="M269.955 2.37085C269.818 2.37085 269.689 2.40319 269.578 2.45989H269.577C269.577 2.45989 262.505 6.19655 262.501 6.19885C262.273 6.316 262.104 6.5319 262.104 6.78876V13.8183C262.104 14.1183 262.354 14.3637 262.656 14.4473L265.422 15.1279C265.487 15.1443 265.556 15.1535 265.628 15.1535C266.033 15.1535 266.406 14.8684 266.405 14.5091V13.5242L264.909 13.3541C264.547 13.307 264.277 13.004 264.275 12.6569V7.611C264.287 7.32895 264.478 7.0896 264.746 6.98344L270.745 4.7504V3.028C270.713 2.66036 270.365 2.37085 269.955 2.37085Z" fill="#1DDBA9"/>
</g>
<path fill-rule="evenodd" clip-rule="evenodd" d="M267.01 8.19522C266.667 8.28077 266.406 8.55236 266.406 8.89094V13.5242L267.8 13.6827C268.236 13.7362 268.58 13.3629 268.58 12.9684L268.586 10.4072C268.585 10.0613 268.905 9.78762 269.279 9.73767L272.234 9.39665C272.235 9.39657 272.235 9.39626 272.236 9.39626C272.591 9.35094 272.896 9.09935 272.896 8.7707V4.91258C272.896 4.55526 272.519 4.29321 272.123 4.29321C272.028 4.29321 271.937 4.30977 271.852 4.33845L270.746 4.75042V6.74289C270.746 7.06247 270.506 7.33271 270.189 7.42393L267.01 8.19522Z" fill="#0D1640"/>
<rect x="294" y="0.262207" width="33" height="17" rx="8.5" fill="#FAFAFA"/>
<g clip-path="url(#clip1_3_6008)">
<path d="M303.36 5.62853C303.097 5.91377 302.674 6.13875 302.252 6.10661C302.2 5.72093 302.406 5.31115 302.648 5.05805C302.912 4.76477 303.374 4.55586 303.747 4.53979C303.791 4.94154 303.62 5.33526 303.36 5.62853ZM303.743 6.18294C303.132 6.1508 302.609 6.50032 302.318 6.50032C302.024 6.50032 301.58 6.19901 301.096 6.20705C300.467 6.21508 299.883 6.5405 299.562 7.05875C298.902 8.09526 299.39 9.62994 300.028 10.4736C300.34 10.8914 300.714 11.3494 301.206 11.3334C301.672 11.3173 301.857 11.0561 302.419 11.0561C302.987 11.0561 303.149 11.3334 303.642 11.3253C304.152 11.3173 304.473 10.9075 304.785 10.4897C305.141 10.0156 305.286 9.55361 305.295 9.5295C305.286 9.52147 304.31 9.17998 304.301 8.15151C304.292 7.29177 305.071 6.88199 305.106 6.85788C304.666 6.26329 303.98 6.19901 303.743 6.18294ZM307.273 5.01787V11.2811H308.337V9.13981H309.81C311.155 9.13981 312.1 8.29614 312.1 7.07482C312.1 5.85351 311.173 5.01787 309.845 5.01787H307.273ZM308.337 5.83744H309.564C310.487 5.83744 311.015 6.2874 311.015 7.07884C311.015 7.87029 310.487 8.32426 309.559 8.32426H308.337V5.83744ZM314.044 11.3293C314.712 11.3293 315.332 11.02 315.613 10.5299H315.635V11.2811H316.62V8.16356C316.62 7.25963 315.829 6.67709 314.611 6.67709C313.481 6.67709 312.646 7.26766 312.615 8.07919H313.573C313.652 7.69352 314.044 7.44042 314.58 7.44042C315.231 7.44042 315.596 7.71762 315.596 8.22784V8.57334L314.268 8.64566C313.033 8.71396 312.364 9.17597 312.364 9.97946C312.364 10.791 313.055 11.3293 314.044 11.3293ZM314.329 10.5861C313.762 10.5861 313.402 10.337 313.402 9.95536C313.402 9.56164 313.749 9.33265 314.413 9.29649L315.596 9.22819V9.58173C315.596 10.1683 315.05 10.5861 314.329 10.5861ZM317.935 12.9845C318.972 12.9845 319.46 12.623 319.887 11.5262L321.755 6.73736H320.674L319.421 10.4375H319.399L318.146 6.73736H317.033L318.836 11.2972L318.739 11.5744C318.576 12.0444 318.313 12.2252 317.842 12.2252C317.759 12.2252 317.596 12.2172 317.53 12.2092V12.9604C317.592 12.9765 317.855 12.9845 317.935 12.9845Z" fill="black"/>
</g>
<rect x="337" y="0.262207" width="33" height="17" rx="8.5" fill="#FAFAFA"/>
<g clip-path="url(#clip2_3_6008)">
<path d="M352.847 8.65982V11.2809H351.956V4.80805H354.32C354.602 4.80255 354.883 4.84924 355.146 4.94542C355.408 5.04159 355.648 5.18536 355.851 5.36841C356.056 5.54035 356.219 5.75122 356.329 5.98684C356.44 6.22246 356.495 6.47738 356.49 6.73445C356.496 6.9929 356.442 7.24948 356.332 7.48661C356.221 7.72373 356.057 7.93578 355.851 8.10824C355.438 8.47596 354.927 8.65965 354.32 8.6593H352.847V8.65982ZM352.847 5.60495V7.86447H354.342C354.506 7.869 354.669 7.84158 354.821 7.78395C354.973 7.72632 355.11 7.63976 355.224 7.5298C355.338 7.42699 355.428 7.30403 355.489 7.16817C355.551 7.03231 355.582 6.88633 355.582 6.73884C355.582 6.59136 355.551 6.44537 355.489 6.30951C355.428 6.17366 355.338 6.05069 355.224 5.94788C355.112 5.83561 354.975 5.74693 354.823 5.68771C354.671 5.6285 354.507 5.60012 354.342 5.60444H352.847V5.60495Z" fill="#5F6368"/>
<path d="M358.544 6.70752C359.203 6.70752 359.723 6.87175 360.105 7.20022C360.486 7.52869 360.676 7.97905 360.676 8.55129V11.2808H359.823V10.6662H359.785C359.416 11.1723 358.925 11.4254 358.312 11.4254C357.789 11.4254 357.351 11.2808 356.999 10.9916C356.83 10.8588 356.695 10.6926 356.604 10.505C356.512 10.3173 356.467 10.113 356.471 9.907C356.471 9.44872 356.657 9.08427 357.028 8.81365C357.399 8.54302 357.895 8.40737 358.515 8.40668C359.044 8.40668 359.48 8.49706 359.823 8.67782V8.48776C359.824 8.34729 359.791 8.20837 359.728 8.08108C359.664 7.95379 359.571 7.84131 359.455 7.7518C359.219 7.55342 358.912 7.44517 358.594 7.44864C358.096 7.44864 357.702 7.64455 357.412 8.03637L356.627 7.57517C357.059 6.99674 357.698 6.70752 358.544 6.70752ZM357.391 9.92507C357.391 10.0309 357.417 10.1353 357.469 10.2296C357.52 10.324 357.595 10.4055 357.687 10.4674C357.884 10.612 358.129 10.6886 358.379 10.6843C358.756 10.6837 359.116 10.544 359.382 10.2959C359.677 10.0366 359.825 9.73243 359.825 9.3833C359.547 9.17672 359.16 9.07343 358.662 9.07343C358.3 9.07343 357.998 9.15486 357.757 9.31771C357.512 9.48298 357.391 9.68389 357.391 9.92507Z" fill="#5F6368"/>
<path d="M365.57 6.85205L362.594 13.2329H361.674L362.778 11.0003L360.821 6.85205H361.79L363.204 10.0335H363.224L364.6 6.85205H365.57Z" fill="#5F6368"/>
<path d="M349.245 8.09472C349.246 7.84132 349.223 7.58836 349.177 7.33862H345.418V8.77077H347.571C347.527 8.9995 347.433 9.21755 347.297 9.41176C347.16 9.60597 346.982 9.77232 346.775 9.90079V10.8304H348.06C348.812 10.1833 349.245 9.22629 349.245 8.09472Z" fill="#4285F4"/>
<path d="M345.418 11.7285C346.493 11.7285 347.399 11.399 348.06 10.8309L346.775 9.90128C346.417 10.1275 345.956 10.2566 345.418 10.2566C344.378 10.2566 343.495 9.60276 343.18 8.72168H341.856V9.67972C342.188 10.2956 342.697 10.8133 343.326 11.1751C343.954 11.5369 344.679 11.7285 345.418 11.7285Z" fill="#34A853"/>
<path d="M343.18 8.72173C343.013 8.26004 343.013 7.76006 343.18 7.29837V6.34033H341.856C341.577 6.85842 341.432 7.43022 341.432 8.01005C341.432 8.58988 341.577 9.16168 341.856 9.67977L343.18 8.72173Z" fill="#FBBC04"/>
<path d="M345.418 5.76342C345.986 5.75475 346.535 5.95512 346.947 6.3212L348.085 5.25987C347.363 4.62776 346.407 4.28072 345.418 4.2915C344.679 4.29154 343.954 4.48314 343.326 4.84492C342.697 5.20671 342.188 5.72444 341.856 6.3403L343.18 7.29834C343.495 6.41726 344.378 5.76342 345.418 5.76342Z" fill="#EA4335"/>
</g>
<defs>
<linearGradient id="paint0_linear_3_6008" x1="1.70258" y1="20.6566" x2="30.417" y2="-4.06568" gradientUnits="userSpaceOnUse">
<stop stop-color="#4E855C"/>
<stop offset="0.486217" stop-color="#356D99"/>
<stop offset="1" stop-color="#112758"/>
</linearGradient>
<clipPath id="clip0_3_6008">
<rect width="11.3027" height="9.84593" fill="white" transform="translate(5.20679 3.8418)"/>
</clipPath>
<clipPath id="clip1_3_6008">
<rect width="22.5099" height="8.44474" fill="white" transform="translate(299.245 4.53979)"/>
</clipPath>
<clipPath id="clip2_3_6008">
<rect width="24.1371" height="8.94149" fill="white" transform="translate(341.431 4.2915)"/>
</clipPath>
</defs>
</svg>
