<svg width="19" height="20" viewBox="0 0 19 20" fill="none" xmlns="http://www.w3.org/2000/svg">
<path d="M9.44477 6.6995C7.71041 6.6995 6.29504 8.11487 6.29504 9.84923C6.29504 11.5836 7.71041 12.999 9.44477 12.999C11.1791 12.999 12.5945 11.5836 12.5945 9.84923C12.5945 8.11487 11.1791 6.6995 9.44477 6.6995ZM18.8916 9.84923C18.8916 8.54492 18.9034 7.25241 18.8302 5.95046C18.7569 4.43821 18.4119 3.09609 17.3061 1.99026C16.1979 0.882059 14.8582 0.53944 13.3459 0.466191C12.0416 0.392941 10.7491 0.404756 9.44713 0.404756C8.14282 0.404756 6.85032 0.392941 5.54836 0.466191C4.03611 0.53944 2.69399 0.884422 1.58816 1.99026C0.47996 3.09845 0.137341 4.43821 0.0640911 5.95046C-0.00915854 7.25478 0.00265595 8.54728 0.00265595 9.84923C0.00265595 11.1512 -0.00915854 12.446 0.0640911 13.748C0.137341 15.2603 0.482323 16.6024 1.58816 17.7082C2.69635 18.8164 4.03611 19.159 5.54836 19.2323C6.85268 19.3055 8.14518 19.2937 9.44713 19.2937C10.7514 19.2937 12.044 19.3055 13.3459 19.2323C14.8582 19.159 16.2003 18.814 17.3061 17.7082C18.4143 16.6 18.7569 15.2603 18.8302 13.748C18.9058 12.446 18.8916 11.1535 18.8916 9.84923ZM9.44477 14.6955C6.76289 14.6955 4.59848 12.5311 4.59848 9.84923C4.59848 7.16735 6.76289 5.00294 9.44477 5.00294C12.1267 5.00294 14.2911 7.16735 14.2911 9.84923C14.2911 12.5311 12.1267 14.6955 9.44477 14.6955ZM14.4895 5.93628C13.8634 5.93628 13.3577 5.43062 13.3577 4.80446C13.3577 4.17829 13.8634 3.67263 14.4895 3.67263C15.1157 3.67263 15.6214 4.17829 15.6214 4.80446C15.6216 4.95314 15.5924 5.10041 15.5356 5.23781C15.4788 5.37521 15.3954 5.50006 15.2903 5.6052C15.1851 5.71033 15.0603 5.7937 14.9229 5.85051C14.7855 5.90732 14.6382 5.93647 14.4895 5.93628Z" fill="white"/>
</svg>
