<svg width="20" height="20" viewBox="0 0 20 20" fill="none" xmlns="http://www.w3.org/2000/svg">
<path d="M0.195557 9.84927C0.195557 13.8816 2.72294 17.3244 6.27985 18.679C6.19327 17.9415 6.10118 16.7254 6.29953 15.8722C6.47033 15.1386 7.40226 11.1984 7.40226 11.1984C7.40226 11.1984 7.12126 10.6356 7.12126 9.80205C7.12126 8.49546 7.87846 7.51945 8.82219 7.51945C9.62504 7.51945 10.0123 8.12159 10.0123 8.84336C10.0123 9.65014 9.49831 10.856 9.23306 11.9744C9.01188 12.9103 9.70296 13.6738 10.6254 13.6738C12.2965 13.6738 13.5818 11.9115 13.5818 9.36757C13.5818 7.11567 11.9635 5.54225 9.65337 5.54225C6.9788 5.54225 5.40853 7.54858 5.40853 9.62259C5.40853 10.4309 5.71944 11.2968 6.10826 11.7682C6.14141 11.8038 6.16484 11.8474 6.17628 11.8947C6.18772 11.9419 6.1868 11.9914 6.17359 12.0382C6.10197 12.3357 5.94297 12.9741 5.91228 13.1047C5.87056 13.2763 5.77611 13.3133 5.59744 13.2299C4.42308 12.6836 3.6895 10.967 3.6895 9.58796C3.6895 6.62137 5.8438 3.898 9.90131 3.898C13.1631 3.898 15.6983 6.22231 15.6983 9.32821C15.6983 12.5687 13.6558 15.1772 10.8191 15.1772C9.86589 15.1772 8.97095 14.6813 8.66398 14.0965C8.66398 14.0965 8.19251 15.8926 8.07838 16.3318C7.85642 17.1851 7.2409 18.265 6.85916 18.8781C7.73914 19.1489 8.67264 19.2945 9.64078 19.2945C14.8569 19.2945 19.086 15.0654 19.086 9.84927C19.086 4.63315 14.8569 0.404053 9.64078 0.404053C4.42465 0.404053 0.195557 4.63315 0.195557 9.84927Z" fill="white"/>
</svg>
