<svg width="32" height="32" viewBox="0 0 32 32" fill="none" xmlns="http://www.w3.org/2000/svg">
<path d="M6.66699 13.3245C6.78492 10.8094 7.82026 8.43828 9.55851 6.70239C11.2968 4.9665 13.6047 3.99888 16.0042 4C18.4037 4.00112 20.7108 4.9709 22.4476 6.70842C24.1844 8.44593 25.2177 10.818 25.3335 13.3332" stroke="#0C0C0D" stroke-width="1.5" stroke-linecap="round" stroke-linejoin="round"/>
<path d="M6.66699 19.9998V23.8939C6.66699 24.6292 6.93295 25.3344 7.40634 25.8543C7.87974 26.3743 8.52181 26.6664 9.1913 26.6664H12.0003" stroke="#0C0C0D" stroke-width="1.5" stroke-linecap="round" stroke-linejoin="round"/>
<path d="M4.00024 14.3333C4.00024 13.781 4.44796 13.3333 5.00024 13.3333H8.0002V19.9999H5.00024C4.44796 19.9999 4.00024 19.5521 4.00024 18.9999V14.3333Z" stroke="#0C0C0D" stroke-width="1.5"/>
<rect x="12.0002" y="25.333" width="7.99992" height="2.66664" rx="1" stroke="#0C0C0D" stroke-width="1.5"/>
<path d="M24.0001 13.3333H27.0001C27.5524 13.3333 28.0001 13.781 28.0001 14.3333V18.9998C28.0001 19.5521 27.5524 19.9999 27.0001 19.9999H24.0001V13.3333Z" stroke="#0C0C0D" stroke-width="1.5"/>
</svg>
