<svg width="46" height="56" viewBox="0 0 46 56" fill="none" xmlns="http://www.w3.org/2000/svg">
<path d="M42.7958 10.5076L24.6998 1.70637C24.251 1.4881 23.7619 1.375 23.2668 1.375C22.7717 1.375 22.2826 1.4881 21.8338 1.70637L3.73784 10.5076C3.10948 10.8151 2.58108 11.308 2.21784 11.9254C1.85459 12.5428 1.6724 13.2577 1.69373 13.982C2.48749 44.0067 17.7386 52.5334 22.1068 54.3649C22.8584 54.6818 23.6933 54.71 24.463 54.4445C28.8783 52.919 44.0451 43.8171 44.8399 13.983C44.8616 13.2586 44.6795 12.5434 44.3162 11.9257C43.953 11.3081 43.4244 10.8151 42.7958 10.5076V10.5076Z" stroke="#0C0C0D" stroke-width="1.5" stroke-linecap="round" stroke-linejoin="round"/>
<path d="M14.6583 25.7251L20.8799 32.4234L32.107 20.6025" stroke="#0C0C0D" stroke-width="1.5" stroke-linecap="round" stroke-linejoin="round"/>
</svg>
