<svg width="18" height="20" viewBox="0 0 18 20" fill="none" xmlns="http://www.w3.org/2000/svg">
<path d="M9.40396 0.419992C10.4341 0.404053 11.4584 0.413498 12.4815 0.404053C12.5435 1.60897 12.9768 2.83633 13.8588 3.68821C14.739 4.56135 15.9841 4.96102 17.1955 5.09622V8.26585C16.0602 8.22865 14.9197 7.99251 13.8895 7.5037C13.4408 7.30061 13.0229 7.03908 12.6137 6.77165C12.6084 9.07169 12.6232 11.3688 12.599 13.6594C12.5376 14.7598 12.1745 15.8549 11.5346 16.7617C10.505 18.2712 8.71796 19.2554 6.88254 19.2861C5.75673 19.3504 4.6321 19.0434 3.67277 18.4779C2.08293 17.5404 0.964203 15.8242 0.801265 13.9823C0.780741 13.5922 0.777589 13.2014 0.791819 12.811C0.933505 11.3133 1.6744 9.88048 2.82442 8.9058C4.12793 7.77054 5.95391 7.22977 7.66358 7.54974C7.67952 8.7157 7.63289 9.88048 7.63289 11.0464C6.85184 10.7938 5.93915 10.8646 5.2567 11.3387C4.7574 11.6676 4.38007 12.1515 4.18283 12.716C4.0199 13.115 4.06653 13.5584 4.07598 13.9823C4.26312 15.274 5.50524 16.3597 6.83118 16.2422C7.71022 16.2327 8.55266 15.7227 9.01078 14.9759C9.15896 14.7143 9.32485 14.4469 9.33371 14.1393C9.41104 12.7313 9.38035 11.3292 9.38979 9.92121C9.39628 6.74804 9.38034 3.58372 9.40455 0.420583L9.40396 0.419992Z" fill="white"/>
</svg>
