<svg width="23" height="16" viewBox="0 0 23 16" fill="none" xmlns="http://www.w3.org/2000/svg">
<path d="M21.6335 2.81272C21.5089 2.36824 21.2661 1.96582 20.9311 1.64826C20.5866 1.32094 20.1644 1.08679 19.7043 0.96793C17.9824 0.514068 11.0837 0.514068 11.0837 0.514068C8.20772 0.481347 5.33243 0.625264 2.47409 0.945007C2.01398 1.07265 1.59256 1.31203 1.24729 1.64185C0.908038 1.96826 0.662311 2.37077 0.533947 2.8118C0.225589 4.47297 0.0757684 6.15969 0.0865034 7.8492C0.0755007 9.5372 0.224954 11.2234 0.533947 12.8866C0.659561 13.3258 0.904371 13.7265 1.24454 14.0501C1.5847 14.3738 2.00831 14.6076 2.47409 14.7314C4.21893 15.1843 11.0837 15.1843 11.0837 15.1843C13.9634 15.2171 16.8423 15.0732 19.7043 14.7534C20.1644 14.6345 20.5866 14.4004 20.9311 14.0731C21.2704 13.7494 21.5115 13.3469 21.6325 12.9086C21.949 11.2481 22.1028 9.56066 22.0919 7.87029C22.1157 6.17276 21.9621 4.47739 21.6335 2.8118V2.81272ZM8.8905 10.9886V4.71068L14.6302 7.85012L8.8905 10.9886Z" fill="white"/>
</svg>
